<svg width="1440" height="484" viewBox="0 0 1440 484" fill="none" xmlns="http://www.w3.org/2000/svg">
<path opacity="0.2" fill-rule="evenodd" clip-rule="evenodd" d="M-36.3602 436.569C27.849 466.107 194.564 511.805 347.87 458.292C371.848 449.922 388.48 439.646 399.734 428.033C410.994 416.414 416.848 403.478 419.303 389.833C421.755 376.198 420.812 361.866 418.497 347.446C416.826 337.034 414.435 326.549 412.084 316.239C411.18 312.277 410.283 308.342 409.434 304.446C403.303 276.298 399.747 250.263 414.443 230.753C429.143 211.238 462.254 198.068 530.052 196.153C632.07 193.272 701.992 218.46 761.218 239.794C780.661 246.798 798.952 253.387 816.847 258.431C853.046 268.634 887.606 272.497 926.722 260.589C965.822 248.687 1009.42 221.043 1063.74 168.349C1117.98 115.743 1163.26 100.096 1203.69 104.88C1244.15 109.669 1279.88 134.938 1314.98 164.489C1323.46 171.628 1331.9 179.018 1340.37 186.426C1366.9 209.642 1393.62 233.028 1422.26 249.4C1460.07 271.02 1501.3 280.456 1549.97 261.234L1549.6 260.304C1501.29 279.387 1460.38 270.043 1422.75 248.532C1394.21 232.214 1367.6 208.923 1341.09 185.723L1341.09 185.722C1332.61 178.303 1324.14 170.893 1315.62 163.724C1280.52 134.17 1244.59 108.714 1203.8 103.887C1162.97 99.055 1117.41 114.902 1063.05 167.631C1008.78 220.271 965.317 247.795 926.431 259.633C887.56 271.465 853.209 267.641 817.119 257.469C799.31 252.449 781.073 245.879 761.664 238.887C702.416 217.543 632.25 192.266 530.023 195.154C462.208 197.069 428.649 210.232 413.645 230.152C398.636 250.076 402.34 276.575 408.457 304.659C409.31 308.575 410.211 312.523 411.115 316.491C413.464 326.79 415.844 337.226 417.51 347.604C419.816 361.973 420.743 376.179 418.318 389.656C415.896 403.123 410.125 415.873 399.016 427.337C387.901 438.807 371.419 449.013 347.541 457.348C194.57 510.744 28.1373 465.139 -35.9424 435.66L-36.3602 436.569ZM327.667 424.244C174.361 477.758 7.64587 432.059 -56.5634 402.521L-56.1455 401.613C7.9342 431.091 174.367 476.696 327.338 423.3C351.216 414.965 367.698 404.76 378.813 393.289C389.922 381.825 395.693 369.075 398.115 355.609C400.54 342.132 399.613 327.926 397.307 313.557C395.641 303.179 393.261 292.742 390.912 282.443C390.007 278.475 389.107 274.528 388.254 270.611C382.137 242.528 378.433 216.029 393.441 196.104C408.446 176.185 442.005 163.021 509.82 161.106C612.047 158.219 682.212 183.495 741.461 204.84C760.87 211.832 779.107 218.401 796.916 223.421C833.006 233.593 867.357 237.418 906.228 225.585C945.114 213.748 988.578 186.223 1042.85 133.583C1097.2 80.8541 1142.77 65.0073 1183.6 69.8391C1224.39 74.666 1260.32 100.122 1295.42 129.676C1303.94 136.846 1312.41 144.256 1320.88 151.676C1347.39 174.876 1374.01 198.167 1402.55 214.484C1440.18 235.995 1481.09 245.339 1529.4 226.257L1529.76 227.187C1481.1 246.408 1439.87 236.973 1402.05 215.352C1373.42 198.98 1346.69 175.594 1320.17 152.378L1320.16 152.373C1311.7 144.967 1303.26 137.579 1294.78 130.441C1259.68 100.891 1223.95 75.621 1183.48 70.8322C1143.06 66.0481 1097.77 81.6954 1043.54 134.301C989.218 186.996 945.619 214.639 906.519 226.542C867.402 238.449 832.843 234.586 796.644 224.384C778.749 219.34 760.458 212.751 741.014 205.747C681.789 184.412 611.867 159.224 509.848 162.106C442.051 164.021 408.94 177.191 394.24 196.706C379.544 216.215 383.1 242.25 389.231 270.399C390.08 274.294 390.977 278.23 391.881 282.191C394.232 292.501 396.623 302.986 398.294 313.398C400.609 327.819 401.552 342.151 399.099 355.786C396.645 369.431 390.791 382.366 379.531 393.985C368.277 405.599 351.645 415.875 327.667 424.244ZM-76.7665 368.474C-12.5573 398.011 154.157 443.71 307.464 390.197C331.442 381.827 348.074 371.551 359.328 359.938C370.588 348.319 376.442 335.383 378.896 321.738C381.349 308.103 380.405 293.771 378.091 279.351C376.42 268.939 374.029 258.453 371.677 248.143C370.774 244.182 369.877 240.247 369.028 236.351C362.897 208.203 359.341 182.168 374.037 162.658C388.737 143.143 421.848 129.973 489.645 128.058C591.664 125.177 661.586 150.364 720.811 171.699C740.255 178.703 758.546 185.292 776.441 190.336C812.64 200.539 847.199 204.402 886.316 192.494C925.416 180.591 969.015 152.948 1023.34 100.253C1077.57 47.6477 1122.85 32.0005 1163.28 36.7845C1203.74 41.5734 1239.47 66.8429 1274.57 96.3934C1283.05 103.531 1291.49 110.918 1299.95 118.324L1299.96 118.325L1299.96 118.329L1299.96 118.33C1326.49 141.546 1353.21 164.933 1381.85 181.305C1419.67 202.925 1460.9 212.361 1509.56 193.139L1509.19 192.209C1460.88 211.291 1419.97 201.948 1382.35 180.437C1353.8 164.119 1327.19 140.828 1300.68 117.628C1292.2 110.208 1283.73 102.798 1275.22 95.6284C1240.11 66.0745 1204.18 40.6184 1163.4 35.7914C1122.57 30.9597 1077 46.8065 1022.64 99.5356C968.374 152.176 924.911 179.7 886.024 191.538C847.154 203.37 812.803 199.546 776.712 189.373C758.904 184.354 740.667 177.784 721.258 170.792C662.009 149.448 591.844 124.171 489.617 127.058C421.802 128.974 388.243 142.137 373.238 162.056C358.23 181.981 361.934 208.48 368.051 236.564C368.904 240.478 369.803 244.424 370.708 248.39L370.708 248.393L370.709 248.395L370.709 248.396C373.058 258.695 375.438 269.131 377.104 279.509C379.41 293.878 380.337 308.084 377.912 321.561C375.49 335.028 369.719 347.778 358.61 359.242C347.494 370.712 331.012 380.918 307.134 389.253C154.164 442.649 -12.2689 397.043 -76.3486 367.565L-76.7665 368.474ZM-96.9696 334.426C-32.7604 363.964 133.954 409.663 287.261 356.149C311.239 347.779 327.871 337.503 339.125 325.89C350.384 314.271 356.239 301.335 358.693 287.69C361.146 274.055 360.202 259.723 357.888 245.303C356.217 234.891 353.826 224.406 351.474 214.096C350.571 210.134 349.673 206.199 348.825 202.303C342.694 174.155 339.138 148.12 353.834 128.61C368.534 109.096 401.645 95.9253 469.442 94.0103C571.46 91.1289 641.383 116.317 700.608 137.651C720.052 144.655 738.343 151.244 756.238 156.288C792.437 166.491 826.996 170.354 866.113 158.447C905.213 146.544 948.812 118.9 1003.14 66.2057C1057.37 13.6001 1102.65 -2.04715 1143.08 2.73688C1183.54 7.52573 1219.27 32.7953 1254.37 62.3458C1262.85 69.4816 1271.29 76.8678 1279.75 84.2714L1279.76 84.2806L1279.76 84.2827C1306.29 107.499 1333.01 130.885 1361.65 147.257C1399.47 168.877 1440.69 178.313 1489.36 159.092L1488.99 158.162C1440.68 177.244 1399.77 167.9 1362.14 146.389C1333.6 130.072 1306.99 106.78 1280.48 83.5804C1272 76.1609 1263.53 68.7506 1255.01 61.5808C1219.91 32.0268 1183.98 6.57077 1143.19 1.7438C1102.36 -3.08792 1056.8 12.7589 1002.44 65.488C948.171 118.128 904.708 145.652 865.821 157.49C826.951 169.323 792.599 165.498 756.509 155.326C738.701 150.306 720.465 143.737 701.057 136.745L701.055 136.744C641.806 115.4 571.641 90.1234 469.414 93.0107C401.599 94.9261 368.04 108.09 353.035 128.009C338.026 147.933 341.731 174.432 347.848 202.516C348.701 206.432 349.601 210.379 350.505 214.346L350.506 214.347L350.506 214.348C352.855 224.647 355.235 235.083 356.901 245.462C359.207 259.831 360.133 274.037 357.709 287.513C355.286 300.98 349.516 313.73 338.407 325.194C327.291 336.664 310.809 346.87 286.931 355.205C133.96 408.601 -32.472 362.996 -96.5518 333.518L-96.9696 334.426Z" fill="url(#paint0_linear_106_46)"/>
<defs>
<linearGradient id="paint0_linear_106_46" x1="1360.57" y1="123.269" x2="-82.8766" y2="123.269" gradientUnits="userSpaceOnUse">
<stop offset="0.310417" stop-color="#4535AF" stop-opacity="0.7"/>
<stop offset="0.461458" stop-color="#F8EFF4" stop-opacity="0.1"/>
<stop offset="0.851637" stop-color="#4535AF" stop-opacity="0.8"/>
</linearGradient>
</defs>
</svg>
