<svg width="121" height="104" viewBox="0 0 121 104" fill="none" xmlns="http://www.w3.org/2000/svg">
<path fill-rule="evenodd" clip-rule="evenodd" d="M108.95 82.4172C108.18 83.0207 107.818 83.895 107.663 84.8779C107.578 85.4201 107.083 85.4943 106.711 85.5895C106.388 85.6724 106.091 85.6831 105.83 85.9491C105.723 86.0592 105.386 86.0833 105.245 85.9971C104.793 85.7217 104.309 85.5204 103.892 85.153C102.424 83.8607 101.347 82.2622 100.339 80.6315C99.3113 78.9677 98.2352 77.3217 97.4478 75.517C97.203 74.9553 97.193 74.9599 97.8094 74.5237C98.3106 75.4768 98.7778 76.4444 99.3187 77.3689C99.7478 78.1024 100.267 78.7825 100.79 79.5501C100.913 79.2411 100.91 79.0431 100.719 78.7676C99.6791 77.2657 98.692 75.7299 97.9092 73.9712C98.0343 73.8896 98.1855 73.7906 98.3358 73.6928C98.3706 73.7227 98.4481 73.7898 98.5806 73.9045V73.2782C98.9522 73.2041 99.2889 73.1374 99.7271 73.0504C100.069 73.2099 100.231 73.8146 100.794 73.8896C100.775 74.5014 101.31 74.8062 101.579 75.2531C101.912 75.8073 102.364 76.2899 102.684 76.6995C103.045 76.6515 103.315 76.6009 103.588 76.5819C104.545 76.5148 104.522 76.545 105.118 77.0707C105.78 77.6547 106.233 78.4719 107.087 78.843C107.142 78.8666 107.203 78.9503 107.206 79.0087C107.233 79.6234 107.577 79.8466 108.154 79.9957C108.638 80.1212 108.776 80.6315 108.799 81.1336C108.816 81.5183 108.887 81.9007 108.95 82.4172Z" fill="black"/>
<path fill-rule="evenodd" clip-rule="evenodd" d="M23.5349 11.025C24.22 11.368 24.22 11.368 24.5886 10.6501C25.0571 10.4894 25.6233 10.8129 26.047 10.3826C26.5238 10.5014 26.9943 10.663 27.4781 10.7297C28.2593 10.8369 28.6627 11.4413 29.1038 11.9499C29.4033 12.2953 29.7169 12.642 29.9906 13.0173C30.3108 13.4564 30.6935 13.849 31.015 14.2868C31.3062 14.6836 31.5551 15.1123 31.8135 15.5323C31.8852 15.6491 31.9772 15.7912 31.9668 15.9138C31.9391 16.2402 32.0521 16.4601 32.2841 16.6942C32.7302 17.144 32.6954 17.8042 32.8503 18.3659C32.994 18.8894 32.9116 19.4863 32.8652 20.0459C32.8478 20.2596 32.8196 20.7156 32.3491 20.3793C32.316 20.3553 32.1515 20.5305 32.0385 20.5968C31.9192 20.6664 31.7154 20.7993 31.6731 20.7625C31.1769 20.3267 31.056 20.6382 30.829 21.069C30.4951 21.7031 30.2914 21.6563 29.395 21.4964C28.8495 21.3987 28.2713 21.3817 27.952 20.9082C27.0883 19.6284 26.2036 18.3572 26.0839 16.7211C26.0363 16.0654 25.8532 15.3811 25.3122 14.9098C24.8463 14.5035 24.5369 13.9227 23.9006 13.6962C23.7089 13.6278 23.5685 13.3992 23.4193 13.2306C23.1025 12.8711 22.9322 12.4714 22.924 11.9656C22.9153 11.4404 23.3303 11.3228 23.5349 11.025Z" fill="black"/>
<path fill-rule="evenodd" clip-rule="evenodd" d="M96.7489 53.8041C96.1897 53.245 95.7204 52.6974 95.1732 52.2434C93.6038 50.9412 92.8587 49.0988 91.9201 47.384C91.4984 46.614 91.619 45.7492 91.6372 44.9162C91.6405 44.7717 91.8402 44.6312 91.957 44.4796C92.1164 44.7953 92.266 45.091 92.4842 45.5226V43.9805C92.8127 43.8178 93.137 43.7291 93.3582 43.5278C93.6328 43.278 93.9431 43.3273 94.1949 43.3907C94.4881 43.4644 94.7383 43.7092 95.0332 43.8964C94.8605 44.7058 95.179 45.3834 95.5738 46.0896C95.9271 45.994 96.3442 46.245 96.6979 45.8821C96.7729 45.8051 97.0189 45.7989 97.1249 45.8627C97.9915 46.3841 99.0547 46.6608 99.4929 47.7311C99.5716 47.9241 99.659 48.1735 99.8173 48.2592C100.056 48.3885 99.8417 48.7919 100.251 48.8076C100.588 48.8205 100.373 49.1643 100.434 49.3515C100.509 49.5834 100.611 49.8104 100.651 50.0482C100.689 50.266 100.659 50.4955 100.659 50.7217C99.792 51.4656 99.2345 52.4133 98.807 53.4691C98.1132 53.5817 97.4091 53.6964 96.7489 53.8041Z" fill="black"/>
<path fill-rule="evenodd" clip-rule="evenodd" d="M2.66956 1.14011C2.87542 0.859696 3.03572 0.626086 3.21341 0.405731C3.27844 0.32579 3.37868 0.269459 3.47187 0.21727C3.73737 0.0685714 3.92708 0.488986 4.22406 0.305909C4.45684 0.162595 4.72939 0.0337785 4.99489 0.00809805C5.21524 -0.0130262 5.54205 0.252477 5.66051 0.167151C5.92436 -0.022967 6.08217 -0.0801268 6.31163 0.177092C6.3543 0.224311 6.51045 0.18869 6.60779 0.16508C7.32767 -0.00847 7.32726 -0.010541 7.71246 0.689045C7.76507 0.537447 7.81063 0.40656 7.89347 0.167566C8.00737 0.475731 8.11921 0.694844 8.16643 0.926796C8.22441 1.21011 8.2385 1.50378 8.25175 1.79372C8.26542 2.08532 8.25465 2.37816 8.41826 2.67845L8.52761 1.59242C8.56613 1.59076 8.60507 1.5891 8.644 1.58786C8.66512 1.78005 8.7024 1.97224 8.70365 2.16484C8.70986 3.14153 8.66388 4.1207 8.71939 5.09407C8.76867 5.95271 8.62163 6.73017 8.1366 7.44011C7.95477 7.26615 7.78246 7.0023 7.57536 7.42313C7.34879 7.88289 6.98595 7.8481 6.51708 7.63727C6.43921 8.13721 6.404 8.72662 5.57601 8.53816V7.28603C5.52092 7.27526 5.46542 7.26407 5.41033 7.25289C5.27903 7.67993 5.14814 8.10697 5.01311 8.54644C4.64323 8.29875 4.34004 8.03532 4.4001 7.51425C4.41666 7.36804 4.24601 7.20816 4.19092 7.04496C3.95276 6.33502 3.95649 6.33336 3.36708 6.31638C3.25441 6.31307 3.14175 6.31597 3.02909 6.31597H2.71968C2.43388 6.03017 2.17625 5.75555 1.90081 5.50041C1.31388 4.95822 1.12708 4.24041 1.03305 3.49443C0.986663 3.12455 1.0666 2.7381 1.014 2.36987C0.956013 1.96396 1.16518 1.66407 1.34992 1.37828C1.71814 0.808749 1.91903 0.792181 2.66956 1.14011Z" fill="black"/>
<path fill-rule="evenodd" clip-rule="evenodd" d="M68.5443 10.0805C68.0625 10.4077 67.5986 10.7357 67.1153 11.031C67.0685 11.0596 66.9003 10.8894 66.7189 10.7626C66.6079 10.9619 66.5325 11.1445 66.4148 11.2937C66.2765 11.4697 66.0988 11.6147 65.9418 11.7766C65.6237 12.1042 65.3172 12.4692 64.8471 11.9713C64.8111 11.9336 64.7017 11.9709 64.6276 11.963C64.0995 11.9058 63.5962 12.0376 63.0648 11.6126C62.6369 11.2705 62.0922 11.0339 61.6901 10.6139C61.3131 10.2196 60.923 9.84933 60.6599 9.34898C60.2565 8.58064 59.858 7.82099 60.0018 6.91927C60.0378 6.69312 60.1931 6.48561 60.3335 6.18282C60.6177 6.41561 60.8099 6.573 61.0344 6.75732C61.2183 6.1472 61.1806 5.43809 61.746 4.90046C61.9676 5.06614 62.1817 5.22602 62.4489 5.42566V4.60182C63.1911 4.47507 63.8654 4.21993 64.6093 4.26466C65.036 4.29034 65.4046 4.42537 65.6747 4.68424C66.0218 5.01643 66.4467 5.25419 66.7301 5.67998C66.986 6.06519 67.336 6.38744 67.6048 6.78424C68.046 7.43661 68.1951 8.19916 68.5177 8.89336C68.6718 9.2243 68.5443 9.68655 68.5443 10.0805Z" fill="black"/>
<path fill-rule="evenodd" clip-rule="evenodd" d="M20.7045 31.6755V34.0994C20.9294 33.4868 20.8905 32.868 20.9096 32.2525C20.917 32.0048 20.7998 31.6966 21.1001 31.5487C21.4103 31.3955 21.738 31.2439 22.0726 31.1946C22.1878 31.1776 22.4069 31.4502 22.4723 31.6287C22.5428 31.8205 22.4885 32.0578 22.4885 32.2997C22.6757 32.2214 22.7871 32.1307 22.887 32.1419C23.0932 32.1651 23.3765 32.356 23.4822 32.279C24.0691 31.847 24.7123 32.1307 25.3191 32.0967C25.5938 32.0814 26.0092 32.2649 26.1409 32.4877C26.464 33.0366 27.116 33.2043 27.4577 33.85C27.4689 34.1259 27.5053 34.4668 27.7919 34.8338C28.1676 35.3147 28.4882 35.9119 28.3718 36.6157C28.3175 36.9429 28.3623 37.2863 28.3623 37.6851C27.5923 38.142 26.7912 38.586 26.0233 39.0814C25.2197 39.6 24.4887 39.2516 23.8048 38.8934C23.3057 38.6316 22.636 38.509 22.4674 37.8119C21.3515 37.3099 21.1531 36.134 20.5575 35.2455C20.157 34.6482 20.1694 33.9532 20.0559 33.3211C19.9623 32.7988 20.3309 32.1937 20.4949 31.6254C20.5649 31.6419 20.6349 31.6589 20.7045 31.6755Z" fill="black"/>
<path fill-rule="evenodd" clip-rule="evenodd" d="M42.5614 43.8984C42.0859 43.4229 41.5818 42.9188 41.0143 42.3514C41.0143 41.9757 40.9754 41.5279 41.0342 41.0934C41.0566 40.9319 41.2898 40.7687 41.4633 40.6739C41.5292 40.6374 41.6986 40.7907 41.822 40.8582C41.9861 40.5334 42.0822 40.094 42.6368 40.2008C42.7399 40.2211 42.8861 40.2274 42.9565 40.1706C43.2328 39.9469 43.5335 39.7187 43.8868 39.8169C44.5201 39.9933 45.2259 40.0965 45.7197 40.5334C46.6955 41.3979 47.6233 42.3373 48.1092 43.5857C48.3987 44.33 48.6601 45.0988 48.8001 45.8808C48.861 46.2229 48.7686 46.6926 48.3788 46.9652C47.7372 47.4146 47.1197 47.9 46.464 48.3275C46.2407 48.4729 45.9259 48.5735 45.6654 48.5507C44.0239 48.4087 42.8542 47.6362 42.3692 45.7822C42.2984 45.5121 42.129 45.2309 42.1654 44.9782C42.2184 44.6125 42.4181 44.2675 42.5614 43.8984Z" fill="black"/>
<path fill-rule="evenodd" clip-rule="evenodd" d="M45.3777 84.7092C45.333 84.4827 45.2883 84.2565 45.2435 84.0299C45.2406 84.9288 44.2917 85.2651 44.085 86.0293C44.0113 86.3027 43.607 86.4244 43.4397 86.2724C43.1667 86.0256 42.9808 86.2057 42.8267 86.306C42.417 86.5727 42.0691 86.547 41.6508 86.3027C40.445 85.5977 39.2012 84.9499 38.4904 83.6576C37.6338 83.1941 37.3832 82.2526 36.851 81.5369C36.5921 81.1889 36.5097 80.7097 36.3291 80.2425C36.6439 79.784 37.1012 79.9053 37.6541 80.1812C37.6007 79.9207 37.6152 79.6808 37.5058 79.533C37.3547 79.3296 37.5162 79.2497 37.6019 79.2136C37.9913 79.0508 38.3939 78.9315 38.7145 78.6242C38.7928 78.5488 39.0144 78.5786 39.1519 78.6201C39.3975 78.6946 39.6079 78.8516 39.8809 78.6296C39.9583 78.567 40.2102 78.6921 40.3684 78.7617C41.7282 79.359 42.9588 80.1079 43.764 81.4333C43.8725 81.6123 44.1169 81.802 44.2996 81.9722C44.8235 82.4589 44.9217 83.168 45.3272 83.6928C45.5964 84.042 45.5376 84.3485 45.3777 84.7092Z" fill="black"/>
<path fill-rule="evenodd" clip-rule="evenodd" d="M113.945 32.0438C113.974 31.8355 114.004 31.6267 114.037 31.3973C114.119 31.4569 114.192 31.4805 114.211 31.5265C114.501 32.2348 114.862 32.9136 115.032 33.6712C115.139 34.1476 115.275 34.6036 114.814 34.9747C114.5 35.2274 114.819 35.9531 114.112 35.9125C113.779 36.4472 113.246 36.3938 112.736 36.3573C112.62 36.7152 112.549 37.0639 112.398 37.375C112.229 37.7254 111.688 37.8244 111.107 37.6587C110.975 37.621 110.847 37.4922 110.725 37.503C109.785 37.585 109.787 37.592 109.391 36.8506C109.194 36.4807 108.955 36.1274 108.802 35.7402C108.616 35.268 108.326 34.9731 107.849 34.7693C107.141 34.4665 106.681 33.8526 106.559 33.1224C106.448 32.4613 106.758 31.8549 107.348 31.3786C107.641 31.7605 107.932 32.1412 108.341 32.6747C108.341 32.1287 108.335 31.7613 108.343 31.3944C108.35 31.0294 108.39 31.104 108.967 30.8439C109.38 30.6579 109.977 30.8832 110.215 30.3108C110.622 30.2951 111.03 30.2802 111.437 30.2644C112.19 30.2346 112.857 30.3166 113.208 31.1533C113.347 31.4847 113.681 31.7348 113.945 32.0438Z" fill="black"/>
<path fill-rule="evenodd" clip-rule="evenodd" d="M2.57954 37.5321C1.68818 37.339 1.37505 36.707 1.29386 36.1515C1.1899 35.4412 0.949249 34.7449 1.00682 33.9939C1.08138 33.0218 1.07599 32.0356 1.00309 31.0635C0.967888 30.5917 1.27067 30.2425 1.26363 29.8014C1.26197 29.6867 1.42144 29.4647 1.49682 29.4692C2.07836 29.5024 2.35463 28.8728 2.96434 28.869C3.36818 28.867 3.76996 28.4884 4.22309 28.2515C4.6696 28.698 5.61937 28.1458 5.98138 29.1304C5.74446 29.8221 6.33469 30.4297 6.53475 31.1384C6.5625 31.2374 6.66647 31.3257 6.6673 31.4193C6.67682 32.5355 6.67309 33.6514 6.67309 34.8638C6.4925 34.7035 6.41422 34.6343 6.21996 34.4616C6.28085 34.7238 6.26925 34.9247 6.35872 34.9926C6.45398 35.0655 6.65487 34.9847 6.7899 35.0299C6.8512 35.0502 6.88392 35.2121 6.89055 35.3124C6.89386 35.3583 6.79404 35.4598 6.75759 35.4524C6.48422 35.3989 6.21457 35.3244 5.91925 35.2506C5.71753 35.6872 5.50215 36.1532 5.34144 36.5015C5.03369 36.4787 4.84978 36.4647 4.66629 36.451C4.98812 36.7757 4.61824 36.8925 4.48446 37.0922C4.34818 37.2947 4.24836 37.5217 4.14025 37.7234C3.42949 37.6464 3.1644 37.1883 2.97428 36.5815C2.83966 36.9062 2.7183 37.1974 2.57954 37.5321Z" fill="black"/>
<path fill-rule="evenodd" clip-rule="evenodd" d="M85.7307 89.4789C85.1462 89.4623 84.5933 89.3045 84.3108 89.9523C83.8336 89.3235 83.7773 88.8774 84.2632 88.3779C84.5987 88.0333 84.8199 87.6029 85.2473 87.3051C85.6213 87.0442 85.7589 86.4672 86.0811 86.0998C86.3288 85.8173 86.7007 85.6434 87.0176 85.4218C87.1166 85.5183 87.2235 85.6235 87.392 85.7887C87.2131 85.9159 87.0375 86.041 86.8615 86.1657C86.8809 86.2108 86.9008 86.256 86.9203 86.3011C87.1779 86.2605 87.4351 86.2199 87.7246 86.1744C87.8017 86.2899 87.8912 86.5865 88.0829 86.6863C89.2348 87.2861 89.97 88.2872 90.67 89.3148C90.8999 89.652 90.979 90.0881 91.1638 90.4613C91.6198 91.3838 91.7374 91.554 91.5987 92.3923C91.4984 92.9983 91.3878 93.6445 90.9119 94.1382C90.7239 94.3329 90.5234 94.6141 90.5135 94.8635C90.4886 95.4931 90.1428 95.5937 89.6341 95.5614C89.492 95.5523 89.3417 95.5705 89.2033 95.6078C88.3161 95.8464 88.2246 95.8215 87.7822 95.1414C87.127 94.1345 86.8138 92.983 86.4328 91.8638C86.1635 91.0731 85.9581 90.26 85.7307 89.4789Z" fill="black"/>
<path fill-rule="evenodd" clip-rule="evenodd" d="M71.3663 77.086C70.7388 76.7297 70.1034 76.4179 69.5918 75.9022C68.6388 74.9396 67.6157 74.0379 66.7363 73.0123C65.8118 71.9341 64.8331 70.8713 64.2751 69.6071C64.334 69.108 64.9843 69.6382 64.9967 69.0492C65.0004 68.881 65.4125 68.7187 65.6412 68.5592C66.2086 68.1632 66.5255 68.097 66.9389 68.5368C67.3469 68.9713 67.8186 69.1271 68.3525 69.2402C69.1772 69.415 69.7463 70.0483 70.4521 70.438C71.2072 70.8547 71.7453 71.5257 72.3587 72.1085C72.6764 72.41 73.0711 72.6416 73.3441 72.9754C73.6187 73.3113 73.8709 73.7152 73.9683 74.1281C74.0271 74.3796 73.8382 74.759 73.646 74.9831C73.4087 75.2593 73.2964 75.6582 72.881 75.792C72.6408 75.869 72.6747 76.1374 72.6279 76.3586C72.5741 76.6125 72.5033 76.9215 72.0625 76.6026C71.7544 76.3802 71.4951 76.6958 71.3663 77.086Z" fill="black"/>
<path fill-rule="evenodd" clip-rule="evenodd" d="M116.843 70.5525C115.556 70.0224 115.002 69.0366 114.452 68.0785C113.969 67.2365 113.528 66.3596 113.169 65.4579C112.81 64.5574 112.185 63.7041 112.464 62.5709C113.278 63.1383 113.211 64.2231 113.993 64.9484C113.85 63.8011 113.254 62.9147 112.957 61.706C113.368 61.9314 113.517 62.013 113.7 62.1128C113.735 61.916 113.772 61.7098 113.808 61.5043C114.149 61.4397 114.485 61.3759 114.881 61.3005C114.987 61.4687 115.125 61.7172 115.289 61.9475C115.928 62.8434 115.932 62.8393 117.093 63.2523C117.223 63.2986 117.344 63.374 117.462 63.4486C118.362 64.0169 119.18 64.6572 119.675 65.6451C119.858 66.0104 120.108 66.6814 120.097 67.0704C120.094 67.1615 120.17 67.2683 120.237 67.3454C120.406 67.5413 120.329 67.7082 120.155 67.8072C119.647 68.0934 119.427 68.6568 118.977 68.9939C118.784 69.1376 118.75 69.329 118.715 69.5663C118.667 69.8894 118.033 70.3082 117.739 70.2402C117.556 70.198 117.438 69.8625 117.189 70.1098C117.058 70.2398 116.959 70.4014 116.843 70.5525Z" fill="black"/>
<path fill-rule="evenodd" clip-rule="evenodd" d="M80.2623 44.2277C80.0651 44.2605 79.8584 44.2944 79.573 44.3416C79.6857 44.5529 79.766 44.7028 79.8501 44.8602C79.3137 45.3966 78.7554 45.955 78.1796 46.5311C78.0869 46.5311 77.9734 46.5141 77.8665 46.5336C76.5995 46.768 75.7557 46.049 75.052 45.1821C74.5024 44.5048 74.0298 43.7589 73.662 42.945C73.4325 42.4367 73.2275 41.9687 73.3915 41.2782C73.7759 42.1232 74.1184 42.8754 74.461 43.628C74.5218 43.6081 74.5827 43.5886 74.644 43.5687C74.6163 43.4254 74.6121 43.2718 74.5566 43.14C74.3276 42.5958 74.067 42.064 73.8512 41.5151C73.7556 41.272 73.5505 40.9692 74.0728 40.8561C74.234 40.8213 74.3284 40.4738 74.4514 40.268C74.5591 40.0874 74.6635 39.9047 74.7488 39.7589C75.2769 39.7105 75.2819 40.1723 75.6112 40.3628C75.5346 40.0721 75.4579 39.7813 75.3569 39.3986C75.5259 39.2648 75.7516 39.0858 75.9773 38.9065C76.1198 39.0482 76.3087 39.2739 76.4839 38.8576C76.674 38.4078 76.9549 38.2326 77.4101 38.5279C77.4515 38.5548 77.5372 38.5755 77.5646 38.5532C78.0918 38.1187 78.4025 38.5515 78.6465 38.8837C79.2288 39.6777 79.503 40.6312 79.8518 41.5383C79.9338 41.7512 80.1123 42.2512 79.5117 42.2752C79.4778 42.2764 79.4517 42.4632 79.4223 42.5635C79.5473 42.5937 79.7395 42.6906 79.7872 42.6426C80.1239 42.305 80.3053 42.7457 80.2722 42.8232C80.0696 43.2991 80.5389 43.7589 80.2623 44.2277Z" fill="black"/>
<path fill-rule="evenodd" clip-rule="evenodd" d="M76.1719 20.1232C76.3044 20.2557 76.4374 20.3887 76.6391 20.59C76.676 20.2706 76.7066 20.0072 76.7402 19.7198C77.2049 19.6224 77.6841 19.4998 78.1708 19.4277C78.4649 19.3843 78.7755 19.3855 79.0688 19.4306C79.2925 19.4654 79.1169 19.8821 79.534 19.9186C79.8036 19.9422 80.0107 20.4003 80.2025 20.7192C80.3582 20.9781 80.125 21.5385 80.7165 21.505C80.7368 21.8715 80.7571 22.2385 80.7782 22.6051C80.7799 22.6407 80.7882 22.6759 80.7935 22.7115L82.4719 24.3899C82.6516 24.3899 82.8422 24.3667 83.024 24.3953C83.3044 24.4404 83.6064 24.7183 83.4626 24.8906C83.1429 25.2738 83.7161 25.5385 83.4887 25.8512C82.6152 26.113 82.3398 26.1419 81.629 26.0177C81.8071 26.4025 81.962 26.738 82.1567 27.1596C82.0432 27.2686 81.8937 27.5341 81.7462 27.5332C80.8155 27.5262 79.8359 27.7623 79.0063 27.1016C78.7813 26.9223 78.5096 26.7819 78.3348 26.5628C77.936 26.0632 77.5789 25.5302 77.2148 25.0033C77.0355 24.7436 76.8822 24.4653 76.7099 24.2002C76.4432 23.7897 76.5223 23.1982 76.0331 22.9045C76.1073 22.4067 75.8264 22.0302 75.6471 21.6006C75.4031 21.017 75.5543 20.4587 76.1719 20.1232Z" fill="black"/>
<path fill-rule="evenodd" clip-rule="evenodd" d="M41.3098 3.37879C41.7501 3.37879 42.0512 3.37838 42.3519 3.37879C42.7549 3.37962 43.1911 3.31211 43.2835 3.89448C43.2934 3.95909 43.4442 4.05808 43.5162 4.04773C43.9934 3.9769 44.1173 4.42797 44.4093 4.62637C45.2016 5.16483 45.3184 6.05163 45.5164 6.87175C45.6295 7.33939 45.4783 7.67489 44.9461 7.99341C44.3488 8.35087 43.6012 8.57288 43.1911 9.22234C42.8291 9.22939 42.5329 9.7956 42.11 9.34246C42.0487 9.27702 41.9129 9.25507 41.8122 9.25672C40.3865 9.28406 39.4944 8.4656 38.7492 7.37418C38.371 6.82081 37.8976 6.32625 37.7493 5.64489C37.6884 5.3653 37.6528 5.07868 37.6329 4.79329C37.6259 4.69968 37.681 4.53732 37.7464 4.51371C38.3201 4.30868 38.7372 3.8195 39.2935 3.62027C39.9794 3.37507 40.7129 3.30134 41.3098 3.37879Z" fill="black"/>
<path fill-rule="evenodd" clip-rule="evenodd" d="M39.4989 58.172C39.6641 58.4317 39.7855 58.6231 40.0216 58.9946C40.0746 58.6011 40.0949 58.4665 40.1102 58.3315C40.1599 57.8837 40.1591 57.8846 40.7249 57.827C40.7957 57.8195 40.9047 57.8291 40.9299 57.7889C41.188 57.3821 41.591 57.2682 41.9977 57.3908C42.4587 57.5296 42.9537 57.7036 43.3124 58.0059C44.712 59.1856 45.5354 60.7666 46.175 62.4441C46.2835 62.7303 46.1903 63.0932 46.1903 63.4162C46.0225 63.3976 45.8908 63.3831 45.7587 63.3682C45.7873 63.7733 45.6957 64.0736 45.2219 64.1692C45.0798 64.1982 44.8856 64.4103 44.8715 64.5532C44.8238 65.0411 44.3227 64.8034 44.1479 65.0573C43.8687 64.6129 43.3882 65.1509 43.0742 64.8332C42.7735 64.5292 42.3618 64.2948 42.163 63.9377C41.7252 63.1511 41.306 62.3327 41.0496 61.4761C40.9187 61.0379 40.7245 60.7467 40.3869 60.5479C39.8389 60.2261 39.4131 59.8181 39.1456 59.2382C38.9223 58.754 38.9128 58.7585 39.4989 58.172Z" fill="black"/>
<path fill-rule="evenodd" clip-rule="evenodd" d="M60.6701 45.0339C60.6701 44.9217 60.6432 44.7655 60.6796 44.6255C60.7041 44.5319 60.8644 44.4681 60.8784 44.3783C60.8938 44.2801 60.7786 44.1674 60.7774 44.0606C60.7765 43.9657 60.9099 43.8493 60.8838 43.7793C60.8362 43.6505 60.7293 43.5312 60.6196 43.4418C60.5467 43.3821 60.4253 43.3813 60.2754 43.3407C60.3458 43.5855 60.4025 43.7826 60.4597 43.9802C60.0608 43.7371 59.6176 43.5432 59.8127 42.9571C59.9775 43.0276 60.1395 43.0976 60.3404 43.1837C60.405 42.4783 59.751 42.8453 59.4991 42.5115C59.8678 42.5549 60.1134 42.301 60.4841 42.3503C60.656 42.3731 60.8797 42.0078 61.1431 41.7584C61.5088 42.0571 61.9189 42.3913 62.3986 42.7828C62.4454 42.4965 62.4789 42.2928 62.5195 42.0447C63.0617 41.9399 63.6175 41.8326 64.1796 41.7241C64.4683 42.0927 64.6941 42.429 64.9691 42.7186C65.2077 42.9687 65.5357 43.1357 65.7656 43.392C66.4142 44.1161 66.7083 45.0302 66.9751 45.9344C67.0707 46.2579 67.176 46.7699 66.5575 46.8564C66.5604 47.4504 65.9342 47.539 65.6517 47.9155C65.2975 48.3869 64.6713 48.4681 63.9953 48.1951C62.983 47.7863 62.3178 46.996 61.6712 46.2264C61.3477 45.8408 60.9845 45.4771 60.6701 45.0339Z" fill="black"/>
<path fill-rule="evenodd" clip-rule="evenodd" d="M79.2859 59.6829C79.4681 59.745 79.6441 59.8046 79.8459 59.8734C79.8869 58.9232 78.9048 58.6569 78.7681 57.7821C78.9669 57.8699 79.1289 57.9072 79.2461 58.0004C79.4341 58.1503 79.5924 58.3367 79.8268 58.5711C79.7469 58.0948 79.6939 57.9855 79.4221 57.6595C80.0161 56.9413 80.0161 56.9413 80.7173 56.9388C81.103 57.3733 81.4323 57.9457 81.9264 58.2472C82.4719 58.5807 82.6326 59.1498 83.0348 59.5578C83.4192 59.9484 83.6743 60.4802 83.9291 60.9793C84.0691 61.2527 84.1879 61.6019 84.1424 61.8893C84.0844 62.2526 83.9295 62.7865 83.6727 62.8896C83.2502 63.0598 83.3446 63.3585 83.2117 63.6153C83.0294 63.9661 82.7801 64.3074 82.3228 64.3828C82.0556 64.4267 81.7375 64.6305 81.5416 64.5423C81.0649 64.3273 80.5724 64.0535 80.2199 63.6778C79.5547 62.9687 78.9599 62.1888 78.3908 61.3985C78.2479 61.2005 78.3137 60.8526 78.2715 60.4611C78.4612 60.6144 78.5366 60.6749 78.6965 60.8037C78.6136 60.2275 79.1173 60.03 79.2859 59.6829Z" fill="black"/>
<path fill-rule="evenodd" clip-rule="evenodd" d="M73.3471 101.112C73.0385 100.942 72.8899 100.861 72.7457 100.781C72.4918 101.699 72.4288 101.746 71.6787 101.416C71.8767 101.877 72.0354 102.246 72.2081 102.646C72.0122 102.76 71.8117 102.877 71.6091 102.994C71.243 102.629 70.8714 102.257 70.4655 101.851C70.2212 102.401 70.8938 102.656 70.8275 103.187C70.2241 103.271 69.8741 102.861 69.5265 102.483C69.3368 102.277 69.2341 101.989 69.0386 101.79C68.1671 100.905 67.3843 99.9488 66.6545 98.9464C66.589 98.8565 66.4983 98.7845 66.4171 98.7066C65.9772 98.287 65.5162 97.8815 65.4835 97.1976C65.9226 96.9288 66.1558 97.343 66.4544 97.5994C66.758 97.097 66.0555 97.0299 66.087 96.6596C66.1139 96.2131 66.9635 96.7826 66.7477 96.0528H67.9708C68.3208 96.2992 68.6758 96.5432 69.0237 96.7963C69.3729 97.0502 69.6036 97.4151 70.031 97.6218C70.4461 97.8231 70.7211 98.2978 71.0864 98.6196C71.3246 98.8296 71.4758 99.1183 71.8564 99.2127C72.1319 99.2807 72.2789 99.6986 72.6972 99.6447C72.8136 99.6294 73.0236 99.8398 73.0829 99.9894C73.1959 100.274 73.2307 100.59 73.3471 101.112Z" fill="black"/>
<path fill-rule="evenodd" clip-rule="evenodd" d="M65.5854 25.562C65.974 25.5877 66.2424 25.3868 66.5978 25.6432C66.4172 25.7053 66.2863 25.7504 66.1434 25.7997C66.2767 26.2524 66.425 26.7023 66.534 27.1612C66.5617 27.2788 66.5 27.5112 66.4184 27.5456C65.9653 27.7369 65.8282 28.2245 65.4753 28.4916C65.3191 28.6101 65.0851 28.6486 64.8809 28.6718C64.7786 28.683 64.658 28.5285 64.5557 28.5392C64.4311 28.5525 64.3167 28.6614 64.1854 28.736C63.9916 28.0509 64.0015 28.0232 63.2382 27.763C62.7813 27.6073 62.6865 27.1583 62.3625 26.8758C62.2901 27.0303 62.2201 27.1794 62.1418 27.3468C62.0279 27.2275 61.8361 27.119 61.8365 27.0113C61.8423 25.6655 61.8411 25.6353 61.2268 24.8288C60.8805 25.4373 61.5441 25.7894 61.5801 26.3846C61.4157 26.3589 61.1701 26.3779 61.1415 26.3079C60.8528 25.6063 60.4129 24.9436 60.864 24.1019C61.004 23.8406 61.0292 23.7035 61.3436 23.6981C61.5375 23.6952 61.7458 23.5813 61.9185 23.4719C62.3663 23.189 62.7975 22.8808 63.2759 22.5549C63.3852 22.7181 63.4863 22.8692 63.4618 22.8324C63.8392 23.0954 64.2327 22.3871 64.2956 23.1256C64.3138 23.3352 64.7823 22.8353 64.7823 23.3841C64.7823 23.5962 65.1721 23.8087 65.368 24.0046C65.298 24.186 65.2317 24.3591 65.165 24.5323C65.2205 24.5708 65.276 24.6093 65.332 24.6478C65.4301 24.461 65.5283 24.2742 65.6521 24.0394C65.8538 24.3823 65.9711 24.5807 66.1247 24.8413C65.9578 25.0641 65.7718 25.313 65.5854 25.562Z" fill="black"/>
<path fill-rule="evenodd" clip-rule="evenodd" d="M27.6158 59.3028C27.3557 58.9747 27.1498 58.715 26.9212 58.4259C26.8048 58.6641 26.7307 58.8153 26.6342 59.0124C26.1997 58.8087 25.9072 58.4723 25.6583 58.1215C25.1082 57.3457 24.6829 56.49 24.1253 55.7129C23.7824 55.2353 23.7621 54.6352 23.8975 54.0139C24.4124 53.9095 24.5238 54.5146 24.9529 54.6675V53.5678C25.7639 53.4534 26.5455 53.3433 27.2621 53.2426C28.0139 53.9178 28.5088 54.6472 28.8597 55.4897C29.0601 55.9697 29.4731 56.3301 29.5986 56.8793C29.6483 57.0963 29.37 57.3884 29.7125 57.5499C29.7183 57.5524 29.6106 57.8166 29.6073 57.8154C29.0481 57.6137 28.8601 58.4247 28.322 58.2946C28.2872 58.2859 28.192 58.4939 28.1385 58.6078C28.0793 58.7329 28.0528 58.8762 27.9799 58.9913C27.9261 59.0775 27.8217 59.1313 27.6158 59.3028Z" fill="black"/>
<path fill-rule="evenodd" clip-rule="evenodd" d="M52.6356 72.9646C52.7972 73.3382 52.9148 73.6103 53.083 73.9984C53.1898 73.7155 53.2391 73.5859 53.2913 73.4483C53.3418 73.4794 53.4247 73.5009 53.4354 73.5415C53.5373 73.9288 53.7212 74.2598 54.0008 74.5538C54.1682 74.7299 54.2891 74.9564 54.403 75.1747C54.6039 75.5612 54.8889 75.825 55.3503 75.907C55.4228 75.7604 55.4973 75.6088 55.5321 75.5384C55.7459 75.6983 55.9782 75.8727 56.1514 76.0023C56.1514 76.1431 56.1663 76.2036 56.1493 76.2148C55.9447 76.3477 55.7355 76.4733 55.5446 76.5901C55.6001 76.8986 55.6498 77.1782 55.7247 77.597C55.3863 77.4325 55.2012 77.3422 54.9344 77.2122C54.7866 77.5096 54.6383 77.8086 54.4788 78.1301C54.3272 78.147 54.1495 78.1677 53.9321 78.1922V78.6942C53.3646 79.1192 52.9003 79.062 52.4082 78.6134C51.8722 78.1247 51.2679 77.7117 50.7212 77.1298C50.9511 76.9777 51.1731 76.8311 51.4166 76.6704C51.2924 76.2148 51.0691 75.808 50.7473 75.4104C50.4254 75.0124 50.249 74.4963 50.0175 74.0481C50.3484 73.6401 50.6098 73.9421 50.9134 74.0696C50.9262 73.9557 50.9788 73.8344 50.9428 73.7524C50.7162 73.2429 50.8144 72.9911 51.2944 72.9691C51.7451 72.948 52.1974 72.9646 52.6356 72.9646Z" fill="black"/>
<path fill-rule="evenodd" clip-rule="evenodd" d="M20.4861 77.4312C20.6753 77.7112 20.8298 77.9403 21.0229 78.2257C21.073 78.0695 21.1417 77.9689 21.126 77.8848C21.049 77.4768 20.9491 77.0734 20.8448 76.6132H21.5013C21.558 76.7312 21.6276 76.8758 21.7651 77.162V76.2392C21.8935 76.194 22.0029 76.1803 22.0795 76.1236C22.2547 75.9931 22.5322 75.697 22.5608 75.7202C22.8478 75.9563 23.2024 75.8138 23.4807 75.9206C23.8958 76.0797 24.2901 76.3572 24.2847 76.8866C24.283 77.0448 24.0734 77.2208 24.1049 77.3538C24.1306 77.4619 24.4205 77.4859 24.5071 77.6081C24.5779 77.7079 24.5837 77.9755 24.5108 78.0339C24.218 78.2675 24.2826 78.5699 24.3025 78.8532C24.3278 79.2069 24.1729 79.4219 23.8589 79.5109C23.5234 79.6062 23.4451 79.8212 23.3747 80.1422C23.2749 80.5957 22.9638 80.8973 22.4378 80.8749C22.2559 80.8674 22.0675 80.8716 21.891 80.9101C21.442 81.0083 20.8762 80.9006 20.7362 80.5713C20.3945 79.7677 19.9 79.0085 19.9919 78.0629C20.0279 77.6942 20.25 77.5894 20.4861 77.4312Z" fill="black"/>
<path fill-rule="evenodd" clip-rule="evenodd" d="M56.7111 57.1088C56.9919 57.1913 57.2852 57.277 57.6455 57.3826C57.7984 57.0185 57.8435 56.6689 57.5213 56.3438C57.9172 55.9839 58.1807 56.5265 58.5688 56.4676C58.6048 56.2717 58.6433 56.0655 58.6806 55.8633C58.9846 55.5378 59.2588 56.1384 59.6262 55.855C60.0019 55.5651 60.0968 56.191 60.4161 56.2626C60.5955 56.3028 60.7632 56.4896 60.8912 56.647C61.3153 57.1672 61.3816 57.9033 61.9528 58.3576C62.0895 58.4662 62.0166 58.8394 62.0472 59.1711C61.4139 58.8601 61.3754 59.8649 60.7653 59.6268C60.5776 59.9304 60.7549 60.4808 60.0686 60.5467C59.9961 60.4233 59.8826 60.2298 59.7211 59.954C59.5836 60.241 59.5169 60.3802 59.4485 60.5235C59.0642 60.6146 58.8881 60.2833 58.7618 60.0724C58.3422 59.3704 57.7988 58.8331 57.0959 58.4131C56.6634 58.1547 56.4261 57.7334 56.7111 57.1088Z" fill="black"/>
<path fill-rule="evenodd" clip-rule="evenodd" d="M51.2149 27.0972C50.6819 27.5148 50.2888 27.8229 49.7814 28.221H48.8325C48.463 27.6867 48.3429 26.9838 47.7982 26.5426C47.741 25.7987 47.2266 25.3377 46.7797 24.8191C46.6376 24.6539 46.6683 24.3399 46.6078 24.0326C46.771 23.987 46.9325 23.9903 47.017 23.9112C47.8839 23.1006 48.7007 23.5562 49.3916 24.1092C49.9815 24.581 50.4793 25.2052 50.8973 25.8406C51.1342 26.2005 51.128 26.7203 51.2149 27.0972Z" fill="black"/>
</svg>
