<svg width="103" height="16" viewBox="0 0 103 16" fill="none" xmlns="http://www.w3.org/2000/svg">
<path d="M0.4 15L4.94 0.599999H8.47L13.01 15H10.53L6.41 2.08H6.95L2.88 15H0.4ZM2.93 11.88V9.63H10.49V11.88H2.93ZM14.818 15V0.599999H20.768C20.908 0.599999 21.088 0.606666 21.308 0.619999C21.528 0.626666 21.7313 0.646666 21.918 0.68C22.7513 0.806666 23.438 1.08333 23.978 1.51C24.5246 1.93667 24.928 2.47667 25.188 3.13C25.4546 3.77667 25.588 4.49667 25.588 5.29C25.588 6.46333 25.2913 7.47333 24.698 8.32C24.1046 9.16 23.1946 9.68 21.968 9.88L20.938 9.97H17.228V15H14.818ZM23.088 15L20.248 9.14L22.698 8.6L25.818 15H23.088ZM17.228 7.72H20.668C20.8013 7.72 20.9513 7.71333 21.118 7.7C21.2846 7.68667 21.438 7.66 21.578 7.62C21.978 7.52 22.2913 7.34333 22.518 7.09C22.7513 6.83667 22.9146 6.55 23.008 6.23C23.108 5.91 23.158 5.59667 23.158 5.29C23.158 4.98333 23.108 4.67 23.008 4.35C22.9146 4.02333 22.7513 3.73333 22.518 3.48C22.2913 3.22667 21.978 3.05 21.578 2.95C21.438 2.91 21.2846 2.88667 21.118 2.88C20.9513 2.86667 20.8013 2.86 20.668 2.86H17.228V7.72ZM37.355 15.3C36.3017 15.3 35.3517 15.1167 34.505 14.75C33.665 14.3833 32.9717 13.86 32.425 13.18C31.885 12.4933 31.5417 11.68 31.395 10.74L33.895 10.36C34.1083 11.2133 34.545 11.8733 35.205 12.34C35.8717 12.8067 36.6383 13.04 37.505 13.04C38.0183 13.04 38.5017 12.96 38.955 12.8C39.4083 12.64 39.775 12.4067 40.055 12.1C40.3417 11.7933 40.485 11.4167 40.485 10.97C40.485 10.77 40.4517 10.5867 40.385 10.42C40.3183 10.2467 40.2183 10.0933 40.085 9.96C39.9583 9.82667 39.7917 9.70667 39.585 9.6C39.385 9.48667 39.1517 9.39 38.885 9.31L35.165 8.21C34.845 8.11667 34.4983 7.99333 34.125 7.84C33.7583 7.68 33.4083 7.46333 33.075 7.19C32.7483 6.91 32.4783 6.55667 32.265 6.13C32.0583 5.69667 31.955 5.16333 31.955 4.53C31.955 3.60333 32.1883 2.82667 32.655 2.2C33.1283 1.56667 33.7617 1.09333 34.555 0.779999C35.355 0.466666 36.2417 0.313332 37.215 0.319999C38.2017 0.326666 39.0817 0.496666 39.855 0.829999C40.6283 1.15667 41.275 1.63333 41.795 2.26C42.315 2.88667 42.6817 3.64333 42.895 4.53L40.305 4.98C40.1983 4.47333 39.9917 4.04333 39.685 3.69C39.385 3.33 39.015 3.05667 38.575 2.87C38.1417 2.68333 37.6783 2.58333 37.185 2.57C36.705 2.56333 36.2583 2.63667 35.845 2.79C35.4383 2.93667 35.1083 3.15 34.855 3.43C34.6083 3.71 34.485 4.03667 34.485 4.41C34.485 4.76333 34.5917 5.05333 34.805 5.28C35.0183 5.5 35.2817 5.67667 35.595 5.81C35.915 5.93667 36.2383 6.04333 36.565 6.13L39.145 6.85C39.4983 6.94333 39.895 7.07 40.335 7.23C40.775 7.39 41.1983 7.61333 41.605 7.9C42.0117 8.18667 42.345 8.56333 42.605 9.03C42.8717 9.49667 43.005 10.09 43.005 10.81C43.005 11.5567 42.8483 12.2133 42.535 12.78C42.2283 13.34 41.8117 13.8067 41.285 14.18C40.7583 14.5533 40.155 14.8333 39.475 15.02C38.8017 15.2067 38.095 15.3 37.355 15.3ZM45.1695 15V0.599999H47.5795V6.66H54.3995V0.599999H56.7995V15H54.3995V8.92H47.5795V15H45.1695ZM58.6031 15L63.1431 0.599999H66.6731L71.2131 15H68.7331L64.6131 2.08H65.1531L61.0831 15H58.6031ZM61.1331 11.88V9.63H68.6931V11.88H61.1331ZM73.0211 15V0.599999H75.4311V7.28L81.1811 0.599999H84.1411L77.9511 7.66L84.5611 15H81.5011L75.4311 8.28V15H73.0211ZM86.1703 15V0.599999H88.5803V15H86.1703ZM91.5758 15V0.599999H97.5258C97.6658 0.599999 97.8458 0.606666 98.0658 0.619999C98.2858 0.626666 98.4891 0.646666 98.6758 0.68C99.5091 0.806666 100.196 1.08333 100.736 1.51C101.282 1.93667 101.686 2.47667 101.946 3.13C102.212 3.77667 102.346 4.49667 102.346 5.29C102.346 6.46333 102.049 7.47333 101.456 8.32C100.862 9.16 99.9524 9.68 98.7258 9.88L97.6958 9.97H93.9858V15H91.5758ZM99.8458 15L97.0058 9.14L99.4558 8.6L102.576 15H99.8458ZM93.9858 7.72H97.4258C97.5591 7.72 97.7091 7.71333 97.8758 7.7C98.0424 7.68667 98.1958 7.66 98.3358 7.62C98.7358 7.52 99.0491 7.34333 99.2758 7.09C99.5091 6.83667 99.6724 6.55 99.7658 6.23C99.8658 5.91 99.9158 5.59667 99.9158 5.29C99.9158 4.98333 99.8658 4.67 99.7658 4.35C99.6724 4.02333 99.5091 3.73333 99.2758 3.48C99.0491 3.22667 98.7358 3.05 98.3358 2.95C98.1958 2.91 98.0424 2.88667 97.8758 2.88C97.7091 2.86667 97.5591 2.86 97.4258 2.86H93.9858V7.72Z" fill="black"/>
</svg>
