<svg width="138" height="26" viewBox="0 0 138 26" fill="none" xmlns="http://www.w3.org/2000/svg">
<path d="M3.65907 20.4119C2.63036 20.4141 1.68003 19.8627 1.17155 18.9684C0.670393 18.0797 0.700445 16.987 1.24969 16.1271L6.37233 8.08282C6.90611 7.20265 7.87218 6.67774 8.90109 6.70883C9.92926 6.73347 10.8645 7.30994 11.3485 8.2174C11.826 9.12038 11.7663 10.2068 11.1943 11.0544L6.07496 19.0987C5.54733 19.9209 4.63599 20.4163 3.65907 20.4119Z" fill="#F62B54"/>
<path d="M12.4469 20.4116C11.4137 20.4116 10.4629 19.8591 9.96368 18.9713C9.46364 18.085 9.4937 16.995 10.0418 16.1376L15.1547 8.11177C15.6808 7.21896 16.6497 6.68173 17.6856 6.70847C18.7275 6.73126 19.6717 7.31407 20.1493 8.22573C20.6236 9.13739 20.5541 10.2303 19.9648 11.0757L14.853 19.1016C14.327 19.9202 13.4199 20.4141 12.4469 20.4116Z" fill="#FFCC00"/>
<path d="M21.035 20.4798C22.4915 20.4798 23.6723 19.3238 23.6723 17.8979C23.6723 16.4719 22.4915 15.3159 21.035 15.3159C19.5785 15.3159 18.3977 16.4719 18.3977 17.8979C18.3977 19.3238 19.5785 20.4798 21.035 20.4798Z" fill="#00CA72"/>
<path d="M135.608 15.4645C136.405 15.4645 136.881 16.031 136.881 16.9589V20.1389H137.963V16.8862C137.963 15.3082 137.22 14.3933 135.822 14.3933C135.275 14.3933 134.406 14.543 133.889 15.5491C133.644 14.9445 133.086 14.5234 132.438 14.453C132.237 14.4163 132.033 14.4042 131.83 14.4172C131.385 14.453 130.593 14.7297 130.296 15.357V14.5137H129.213V20.1389H130.296V17.1033C130.296 15.9225 131.069 15.4645 131.843 15.4645C132.568 15.4645 133.044 16.0191 133.044 16.947V20.1389H134.121V17.1033C134.121 16.1634 134.685 15.4536 135.608 15.4645ZM125.238 19.199C125.733 19.2099 126.21 19.0123 126.556 18.6542C126.904 18.296 127.088 17.8087 127.07 17.3084C127.07 16.1753 126.236 15.4645 125.238 15.4645C124.238 15.4645 123.406 16.1753 123.406 17.3084C123.386 17.8076 123.571 18.2939 123.916 18.6509C124.261 19.0091 124.736 19.2077 125.229 19.199H125.238ZM125.238 20.2539C123.655 20.2539 122.335 19.0851 122.335 17.3019C122.335 15.5187 123.655 14.3868 125.238 14.3868C126.82 14.3868 128.152 15.5187 128.152 17.3019C128.152 19.0851 126.813 20.2594 125.23 20.2594L125.238 20.2539ZM116.762 17.3019L116.751 17.3084C116.751 15.5253 118.106 14.3933 119.699 14.3868C120.509 14.3711 121.287 14.6992 121.841 15.2897L121.02 15.9887C120.668 15.643 120.193 15.4524 119.699 15.459C118.701 15.459 117.833 16.1699 117.833 17.3019C117.833 18.067 118.288 18.7562 118.985 19.0492C119.683 19.3423 120.486 19.1795 121.02 18.639L121.853 19.3379C121.297 19.9345 120.515 20.2674 119.699 20.2539C118.118 20.2539 116.762 19.0851 116.762 17.3019ZM113.296 19.059C113.294 18.8604 113.371 18.669 113.509 18.5269C113.648 18.3849 113.838 18.3038 114.036 18.3015C114.235 18.3038 114.425 18.3849 114.563 18.5269C114.702 18.669 114.779 18.8604 114.777 19.059C114.756 19.4544 114.432 19.7658 114.036 19.7699C113.641 19.7658 113.316 19.4544 113.296 19.059Z" fill="#333333"/>
<path d="M116.257 7.36327H112.403L109.702 14.3277L107.015 7.36327H103.161L107.846 18.3683L104.932 25.6442H108.758L116.257 7.36327ZM92.8189 13.4844C92.8189 15.2426 94.3557 16.3995 95.8654 16.3995C97.349 16.3995 98.8066 15.3229 98.8066 13.4833C98.8066 11.6437 97.349 10.566 95.8654 10.566C94.3557 10.566 92.8189 11.724 92.8189 13.4833V13.4844ZM98.8066 19.6294V18.2369C98.0251 19.4199 96.2018 19.8671 95.2663 19.8671C92.1688 19.8671 89.0703 17.4251 89.0703 13.4833C89.0703 9.54256 92.1678 7.10063 95.2663 7.10063C96.0466 7.10063 97.8699 7.3611 98.8066 8.72858V7.36761H102.399V19.6316L98.8066 19.6305V19.6294ZM88.0479 19.6294H84.4556V18.1056C83.8554 19.2343 82.4 19.892 80.8893 19.892C77.7647 19.892 75.0047 17.3969 75.0047 13.5332C75.0047 9.59683 77.7647 7.09845 80.8893 7.09845C82.3978 7.09845 83.8576 7.72793 84.4556 8.85774V0.682129H88.0479V19.6294ZM84.3774 13.4562C84.3774 11.6177 83.0501 10.54 81.5665 10.54C80.0297 10.54 78.7534 11.6958 78.7534 13.4562C78.7534 15.273 80.0297 16.4234 81.5654 16.4234C83.0772 16.4256 84.3774 15.2165 84.3774 13.4562ZM66.1226 13.1393C66.1226 11.2747 67.0863 10.6441 68.3616 10.6441C69.5847 10.6441 70.4703 11.4581 70.4703 13.0861V19.6272H74.0887V12.2992C74.0887 8.80673 72.3696 7.09845 69.6357 7.09845C68.2042 7.09845 66.7727 7.91243 66.1215 9.14751V7.36327H62.5053V19.6272H66.1226V13.1393ZM55.1578 19.8378C51.7217 19.8378 48.8554 17.3166 48.8554 13.4551C48.8554 9.5914 51.7184 7.0952 55.1578 7.0952C58.5971 7.0952 61.4851 9.5914 61.4851 13.4551C61.4851 17.3188 58.5938 19.8389 55.1578 19.8389V19.8378ZM55.1578 16.2671C56.6663 16.2671 57.9177 15.1623 57.9177 13.4562C57.9177 11.8011 56.6674 10.6713 55.1578 10.6713C54.4231 10.6598 53.7161 10.9505 53.202 11.4755C52.6851 12.0031 52.4044 12.7178 52.4239 13.4562C52.4249 15.1644 53.6741 16.2671 55.1578 16.2671ZM42.3685 10.6452C43.4354 10.6452 44.3731 11.4863 44.3731 13.0872V19.6294H47.9654V12.6639C47.9654 8.96084 46.1649 7.09628 43.2791 7.09628C42.4217 7.09628 40.8068 7.35676 39.6346 9.27558C38.9574 7.85708 37.6561 7.12125 35.7329 7.12125C34.3692 7.11431 33.1274 7.9054 32.5573 9.14426V7.36436H28.9368V19.6283H32.5541V13.1393C32.5541 11.2747 33.5699 10.6441 34.6628 10.6441C35.7047 10.6441 36.6403 11.4581 36.6674 13.0079V19.6283H40.2858V13.1393C40.2858 11.3561 41.2235 10.6463 42.3685 10.6463V10.6452Z" fill="#333333"/>
</svg>
