<svg width="138" height="29" viewBox="0 0 138 29" fill="none" xmlns="http://www.w3.org/2000/svg">
<path d="M136.385 9.84768C137.46 10.7176 136.322 12.0936 135.373 11.3977C134.202 10.6544 131.545 10.3064 131.213 11.9512C130.786 14.5451 137.666 13.0584 137.555 17.2655C137.444 21.2829 131.624 21.3778 129.441 19.5747C128.919 19.1478 128.935 18.4518 129.22 18.0247C129.631 17.6136 130.09 17.4712 130.628 17.914C131.925 18.7997 135.262 19.464 135.499 17.2181C135.293 14.8772 128.714 16.2849 129.204 11.7931C129.568 8.72474 134.202 8.17111 136.385 9.84768ZM126.009 10.4645V16.19C126.009 22.1053 116.471 22.1053 116.471 16.19V10.4645C116.471 9.04112 118.543 8.9778 118.543 10.4645V16.19C118.543 19.3058 123.937 19.4957 123.937 16.19V10.4645C123.937 9.05683 126.009 8.94613 126.009 10.4645ZM60.7011 9.02529C63.4689 9.16753 66.3633 11.0813 66.3633 14.8299C66.3633 18.5783 63.4689 20.5238 60.7011 20.5238C57.7751 20.6503 54.7383 18.7048 54.7383 14.8299C54.7383 10.939 57.7751 9.02529 60.7011 9.02529ZM74.6356 9.42059C78.653 9.42059 79.4754 14.7982 76.1224 16.1425L78.2259 18.7048C79.0484 19.9228 77.4035 21.0931 76.4545 19.8911L74.0663 16.4748H71.5831V19.3375C71.5831 20.7135 69.4795 20.761 69.4795 19.3691V10.3855C69.4795 9.83184 69.9066 9.42059 70.4285 9.42059H74.6356ZM41.8633 9.27835C42.322 9.27835 42.5909 9.54724 42.8598 9.84768L46.3393 14.5451L49.9455 9.67365C50.4674 9.0253 51.7485 9.27835 51.7485 10.3696V19.2743C51.7485 19.9701 51.3057 20.3656 50.7995 20.3656C50.2301 20.3656 49.7873 19.9701 49.7873 19.2743V13.4222L47.1618 16.7437C46.5923 17.4395 45.8807 17.4395 45.3587 16.7437L43.0021 13.4222V19.2743C43.0021 19.9701 42.4327 20.3656 41.8633 20.3656C41.3572 20.3656 40.9143 19.9701 40.9143 19.2743V10.3696C40.9143 9.54725 41.6102 9.27835 41.8633 9.27835ZM86.1029 9.27835C88.159 9.27835 90.0095 10.6544 90.0095 13.2957C90.0095 15.7946 88.159 17.1865 86.1029 17.1865H83.4615V19.2743C83.4615 19.9701 83.0187 20.3656 82.4493 20.3656C81.9274 20.3656 81.3738 19.9701 81.3738 19.2743V10.3696C81.3738 9.84768 81.785 9.27835 82.4493 9.27835H86.1029ZM101.208 9.42058C101.762 9.42058 102.189 9.83184 102.189 10.4013V19.385C102.189 19.9385 101.762 20.3656 101.208 20.3656C100.639 20.3656 100.132 19.9385 100.132 19.385V15.9212H94.9764V19.385C94.9764 19.9385 94.5651 20.3656 94.0115 20.3656C93.2998 20.3656 92.8886 19.9385 92.8886 19.385V10.4013C92.8886 9.83185 93.2998 9.42058 94.0115 9.42058C94.5651 9.42058 94.9764 9.83184 94.9764 10.4013V13.8493H100.132V10.4013C100.132 9.83185 100.639 9.42058 101.208 9.42058ZM112.217 9.42058C113.672 9.42058 113.64 11.4767 112.217 11.4767H107.662V13.8493H111.647C113.055 13.8493 113.055 15.9212 111.647 15.9212H107.662V18.2936H112.486C113.925 18.2936 114.035 20.3656 112.486 20.3656H106.539C105.985 20.3656 105.558 19.9385 105.558 19.385V10.4013C105.558 9.83185 105.985 9.42058 106.539 9.42058H112.217ZM60.5271 11.0813C58.7557 11.0813 56.8261 12.3309 56.8261 14.8299C56.8261 17.313 58.7557 18.5783 60.5271 18.5783C62.346 18.5783 64.2914 17.313 64.2914 14.8299C64.2914 12.3309 62.346 11.0813 60.5271 11.0813ZM86.1029 11.2712H83.4615V15.2095H86.1029C87.1625 15.2095 88.0009 14.2763 88.0009 13.2957C88.0009 12.1886 87.1625 11.2712 86.1029 11.2712ZM74.6357 11.3344H71.5831V14.6558H74.6357C76.6917 14.6558 76.8183 11.3344 74.6357 11.3344Z" fill="#3DB5E6"/>
<path d="M28.3689 17.7239C26.8269 23.9189 21.1851 28.3264 14.5402 28.3264C7.86529 28.3264 2.27201 23.6581 0.793213 17.4375C2.57139 17.4375 4.23372 17.4456 5.00547 17.4456C5.36953 17.4456 5.44023 17.4519 5.46129 17.4504C6.04198 17.4218 6.7701 17.2302 7.25451 16.0522L9.10038 11.2236L13.1998 21.0938C13.5684 21.8806 14.1837 21.8248 14.5507 21.8248H14.5853C15.3014 21.8248 15.6128 21.5739 15.8851 21.0549L20.5156 11.2976L22.0952 15.695L22.1915 15.9079C22.5254 16.6406 22.7657 17.3642 23.5922 17.4588C23.7626 17.4783 25.7411 17.4437 28.4084 17.4437C28.4084 17.4437 28.4084 17.4608 28.3689 17.7239Z" fill="#3DB5E6"/>
<path d="M28.8216 14.0751C28.8216 14.1489 28.8216 14.3342 28.8201 14.3342H28.8171H24.5598L22.076 7.39596C21.8549 6.87996 21.5224 6.1064 20.5536 6.1064C19.9608 6.1064 19.4253 6.59592 19.1214 7.40377L14.6188 17.8332L10.2847 7.46703C9.86045 6.54636 9.5671 6.11336 8.71863 6.11336C8.14245 6.11336 7.71972 6.3256 7.25938 7.41627L4.6869 14.4373L0.412955 14.4328C0.409944 14.326 0.408447 14.2192 0.408447 14.1124C0.408447 6.30766 6.73586 0 14.5406 0C22.3453 0 28.8216 6.27043 28.8216 14.0751Z" fill="#D8292F"/>
</svg>
