<svg width="138" height="22" viewBox="0 0 138 22" fill="none" xmlns="http://www.w3.org/2000/svg">
<path d="M19.2721 21.8438V16.2834H13.2168C11.5701 16.2834 10.0448 17.1479 9.20137 18.5591L7.23828 21.8438H19.2721Z" fill="#63D2F9"/>
<path d="M0 0.482666V6.04306H15.949L19.2722 0.482666H0Z" fill="#4E5EE4"/>
<path d="M7.63304 9.17288L0.0175781 21.8439H6.50577L15.6125 6.68481H12.0297C10.2276 6.68481 8.55802 7.62962 7.63304 9.17288Z" fill="#63B0F9"/>
<path d="M33.0774 16.5071C29.8148 16.5071 27.4141 14.1356 27.4141 10.9532C27.4141 7.80143 29.8302 5.39935 33.0927 5.39935C36.3553 5.39935 38.7714 7.83203 38.7714 10.9532C38.7714 14.105 36.3399 16.5071 33.0774 16.5071ZM33.0927 14.564C35.1549 14.564 36.6323 13.034 36.6323 10.9532C36.6323 8.90303 35.1549 7.34244 33.0927 7.34244C31.0152 7.34244 29.5378 8.90303 29.5378 10.9532C29.5378 13.034 31.0152 14.564 33.0927 14.564ZM40.9561 19.8272V8.26043H42.926V9.28552H43.0337C43.2492 8.94893 43.9879 8.06153 45.4652 8.06153C47.7275 8.06153 49.2818 9.74452 49.2818 12.2537C49.2818 14.7629 47.7429 16.5071 45.5268 16.5071C44.0956 16.5071 43.3261 15.7115 43.0645 15.2678H42.9568V19.8272H40.9561ZM45.0805 14.7017C46.3732 14.7017 47.2504 13.7072 47.2504 12.2843C47.2504 10.8155 46.3732 9.86692 45.0651 9.86692C43.7416 9.86692 42.9106 10.9226 42.9106 12.2843C42.9106 13.7837 43.834 14.7017 45.0805 14.7017ZM55.0061 16.5071C52.6207 16.5071 50.9279 14.7323 50.9279 12.3302C50.9279 9.79042 52.6361 8.06153 55.0061 8.06153C57.6069 8.06153 59.0227 9.97402 59.0227 12.2384V12.8657H52.867C52.9285 14.0897 53.7749 14.9159 55.0676 14.9159C56.0526 14.9159 56.8066 14.4569 57.0836 13.799H58.9458C58.5456 15.4361 57.099 16.5071 55.0061 16.5071ZM52.8977 11.4581H57.1144C57.0221 10.3718 56.1757 9.65272 55.0061 9.65272C53.8827 9.65272 53.0208 10.4483 52.8977 11.4581ZM61.1766 16.3082V8.26043H63.0849V9.23962H63.1927C63.5158 8.64293 64.3161 8.06153 65.4703 8.06153C67.2862 8.06153 68.3943 9.33142 68.3943 11.045V16.3082H66.3936V11.5652C66.3936 10.586 65.7627 9.92812 64.8393 9.92812C63.8698 9.92812 63.1773 10.6931 63.1773 11.7029V16.3082H61.1766ZM70.3789 16.3082V14.4875L75.9807 7.46484V7.35774H70.579V5.59825H78.5353V7.40364L72.9336 14.4263V14.5487H78.5661V16.3082H70.3789ZM83.9826 16.5071C81.5972 16.5071 79.9044 14.7323 79.9044 12.3302C79.9044 9.79042 81.6126 8.06153 83.9826 8.06153C86.5834 8.06153 87.9992 9.97402 87.9992 12.2384V12.8657H81.8434C81.905 14.0897 82.7514 14.9159 84.0441 14.9159C85.029 14.9159 85.7831 14.4569 86.0601 13.799H87.9222C87.5221 15.4361 86.0755 16.5071 83.9826 16.5071ZM81.8742 11.4581H86.0909C85.9986 10.3718 85.1522 9.65272 83.9826 9.65272C82.8591 9.65272 81.9973 10.4483 81.8742 11.4581ZM90.1531 19.8272V8.26043H92.123V9.28552H92.2307C92.4462 8.94893 93.1848 8.06153 94.6622 8.06153C96.9245 8.06153 98.4788 9.74452 98.4788 12.2537C98.4788 14.7629 96.9398 16.5071 94.7238 16.5071C93.2926 16.5071 92.5231 15.7115 92.2615 15.2678H92.1538V19.8272H90.1531ZM94.2775 14.7017C95.5702 14.7017 96.4474 13.7072 96.4474 12.2843C96.4474 10.8155 95.5702 9.86692 94.2621 9.86692C92.9386 9.86692 92.1076 10.9226 92.1076 12.2843C92.1076 13.7837 93.031 14.7017 94.2775 14.7017ZM100.633 19.8272V8.26043H102.603V9.28552H102.71C102.926 8.94893 103.664 8.06153 105.142 8.06153C107.404 8.06153 108.958 9.74452 108.958 12.2537C108.958 14.7629 107.419 16.5071 105.203 16.5071C103.772 16.5071 103.003 15.7115 102.741 15.2678H102.633V19.8272H100.633ZM104.757 14.7017C106.05 14.7017 106.927 13.7072 106.927 12.2843C106.927 10.8155 106.05 9.86692 104.742 9.86692C103.418 9.86692 102.587 10.9226 102.587 12.2843C102.587 13.7837 103.511 14.7017 104.757 14.7017ZM114.683 16.5071C112.297 16.5071 110.604 14.7323 110.604 12.3302C110.604 9.79042 112.313 8.06153 114.683 8.06153C117.283 8.06153 118.699 9.97402 118.699 12.2384V12.8657H112.544C112.605 14.0897 113.452 14.9159 114.744 14.9159C115.729 14.9159 116.483 14.4569 116.76 13.799H118.622C118.222 15.4361 116.776 16.5071 114.683 16.5071ZM112.574 11.4581H116.791C116.699 10.3718 115.852 9.65272 114.683 9.65272C113.559 9.65272 112.697 10.4483 112.574 11.4581ZM122.823 16.3082C121.407 16.3082 120.607 15.4667 120.607 14.0438V4.83325H122.608V13.8602C122.608 14.3192 122.838 14.564 123.254 14.564H123.577V16.3082H122.823ZM126.501 7.18944C125.777 7.18944 125.269 6.74574 125.269 6.02664C125.269 5.33815 125.777 4.87915 126.501 4.87915C127.224 4.87915 127.732 5.33815 127.732 6.02664C127.732 6.74574 127.224 7.18944 126.501 7.18944ZM125.5 16.3082V8.26043H127.501V16.3082H125.5ZM129.932 16.3082V8.26043H131.84V9.23962H131.948C132.271 8.64293 133.071 8.06153 134.225 8.06153C136.041 8.06153 137.149 9.33142 137.149 11.045V16.3082H135.149V11.5652C135.149 10.586 134.518 9.92812 133.594 9.92812C132.625 9.92812 131.932 10.6931 131.932 11.7029V16.3082H129.932Z" fill="#282846"/>
</svg>
