<svg width="138" height="19" viewBox="0 0 138 19" fill="none" xmlns="http://www.w3.org/2000/svg">
<path d="M59.9127 11.8482H68.9752L64.1833 4.13874L55.3885 18.0778H51.3858L62.0832 1.33402C62.5483 0.657499 63.3235 0.248779 64.1833 0.248779C65.0148 0.248779 65.7899 0.643412 66.241 1.30583L76.9806 18.0778H72.978L71.0893 14.963H61.914L59.9127 11.8482ZM101.49 14.963V0.417908H98.0936V16.3865C98.0936 16.8234 98.2627 17.2462 98.5869 17.5704C98.911 17.8946 99.3479 18.0778 99.8271 18.0778H115.317L117.318 14.963H101.49ZM45.2971 12.3556C48.5952 12.3556 51.2731 9.69182 51.2731 6.3938C51.2731 3.09579 48.5952 0.417908 45.2971 0.417908H30.4377V18.0778H33.833V3.5327H45.0716C46.6502 3.5327 47.9187 4.81525 47.9187 6.3938C47.9187 7.97233 46.6502 9.2549 45.0716 9.2549L35.4961 9.2408L45.6354 18.0778H50.5684L43.7468 12.3556H45.2971ZM9.53627 18.0778C4.66107 18.0778 0.704834 14.1314 0.704834 9.2549C0.704834 4.37834 4.66107 0.417908 9.53627 0.417908H19.8009C24.6775 0.417908 28.6309 4.37834 28.6309 9.2549C28.6309 14.1314 24.6775 18.0778 19.8009 18.0778H9.53627ZM19.5726 14.963C22.7311 14.963 25.2892 12.412 25.2892 9.2549C25.2892 6.09782 22.7311 3.5327 19.5726 3.5327H9.76313C6.60606 3.5327 4.04651 6.09782 4.04651 9.2549C4.04651 12.412 6.60606 14.963 9.76313 14.963H19.5726ZM84.0699 18.0778C79.1934 18.0778 75.233 14.1314 75.233 9.2549C75.233 4.37834 79.1934 0.417908 84.0699 0.417908H96.2613L94.2741 3.5327H84.2955C81.1384 3.5327 78.5733 6.09782 78.5733 9.2549C78.5733 12.412 81.1384 14.963 84.2955 14.963H96.5432L94.5419 18.0778H84.0699ZM125.605 14.963C122.998 14.963 120.785 13.2153 120.108 10.8052H134.625L136.627 7.69045H120.108C120.785 5.29446 122.998 3.5327 125.605 3.5327H135.57L137.585 0.417908H125.38C120.503 0.417908 116.543 4.37834 116.543 9.2549C116.543 14.1314 120.503 18.0778 125.38 18.0778H135.852L137.853 14.963H125.605Z" fill="#EA1B22"/>
</svg>
