<svg width="138" height="22" viewBox="0 0 138 22" fill="none" xmlns="http://www.w3.org/2000/svg">
<path d="M130.325 9.88635V12.7458H132.334V15.5829C132.34 15.8002 132.33 16.0321 132.3 16.2317L132.283 16.3286C132.28 16.3502 132.276 16.3724 132.271 16.3952L132.255 16.4649C132.252 16.4768 132.248 16.4888 132.245 16.5009L132.222 16.5745C132.041 17.0969 131.497 17.7589 130.274 17.7589C128.972 17.7589 128.449 16.9989 128.306 16.4649L128.289 16.3952L128.277 16.3286C128.241 16.1098 128.226 15.8364 128.226 15.5829V6.62205C128.226 6.3403 128.242 6.03488 128.293 5.78607L128.328 5.63487C128.33 5.6244 128.333 5.61376 128.336 5.60296L128.355 5.53637C128.358 5.52499 128.362 5.51347 128.366 5.50184L128.391 5.43065C128.577 4.93556 129.068 4.27616 130.264 4.27616C131.186 4.27616 131.683 4.65218 131.949 5.04082L131.996 5.11375C132.011 5.13805 132.025 5.16231 132.038 5.18644L132.075 5.25836L132.108 5.32899L132.136 5.39777L132.16 5.4642L132.181 5.52772L132.198 5.58781L132.212 5.64394L132.223 5.69558C132.229 5.72126 132.233 5.74852 132.238 5.77686L132.249 5.86463C132.251 5.87963 132.253 5.89478 132.254 5.91001L132.266 6.04765L132.274 6.17965L132.281 6.35963L132.283 6.45186V7.53996H137.221L137.222 6.86262L137.225 6.62037L137.224 6.43259L137.22 6.21395L137.216 6.09624L137.207 5.91276L137.194 5.72481L137.183 5.59915C136.849 2.289 134.361 1.01545 131.334 0.793839L131.131 0.780613L130.927 0.770438C130.825 0.766103 130.722 0.762889 130.619 0.760758L130.411 0.75793C130.377 0.757579 130.342 0.757579 130.307 0.757579L130.099 0.758999C130.064 0.759474 130.03 0.760069 129.995 0.760786L129.789 0.766552L129.584 0.775296L129.381 0.78708L129.18 0.801967C129.113 0.807453 129.046 0.813468 128.98 0.82002L128.782 0.841304C128.749 0.845124 128.716 0.849081 128.684 0.853177L128.489 0.879424C128.037 0.944596 127.601 1.03744 127.189 1.16157L127.014 1.21669C125.1 1.84436 123.71 3.17885 123.425 5.59915L123.395 5.86782L123.375 6.07583L123.356 6.29391L123.34 6.51088C123.331 6.65267 123.326 6.78625 123.326 6.89672L123.326 15.2455L123.328 15.3492L123.332 15.5067L123.337 15.6171L123.344 15.735L123.352 15.8632L123.364 16.0045L123.386 16.2469L123.404 16.4328C123.681 19.5088 126.013 20.8772 128.865 21.2L129.065 21.2209C129.4 21.2528 129.741 21.2708 130.086 21.2759L130.293 21.2774L130.502 21.2759C130.849 21.2708 131.192 21.2528 131.527 21.2209L131.728 21.2C134.59 20.8772 136.906 19.5088 137.188 16.4328L137.211 16.1616L137.228 15.9321L137.243 15.6749L137.252 15.4534L137.26 15.1398V9.88635H130.325ZM96.2781 1.28501H91.3195V15.7896C91.3273 16.0424 91.3195 16.3263 91.2759 16.5345L91.2613 16.5977L91.2432 16.6648C91.2366 16.6879 91.2293 16.7115 91.2214 16.7355L91.1954 16.8091C91.0084 17.3078 90.5318 17.9585 89.3918 17.9585C88.3227 17.9585 87.8345 17.3712 87.6301 16.8849L87.6001 16.8091C87.5955 16.7966 87.5911 16.7842 87.5868 16.772L87.5634 16.6998L87.5441 16.6308C87.5412 16.6196 87.5385 16.6085 87.5359 16.5977L87.5222 16.5345C87.4726 16.3263 87.4663 16.0424 87.4726 15.7896V1.28501H82.5155V15.3394L82.5146 15.4524L82.5163 15.65L82.5232 15.9407L82.5368 16.294L82.5463 16.4719L82.5528 16.5663L82.559 16.6358C82.8019 19.236 84.3274 20.5895 86.4818 21.1558L86.6653 21.2018C87.0662 21.2975 87.4875 21.3672 87.9252 21.4137L88.1284 21.4336L88.3339 21.4502L88.5415 21.4637C88.6458 21.4696 88.7509 21.4744 88.8568 21.4781L89.0694 21.4839L89.2839 21.4868C89.3198 21.4871 89.3557 21.4871 89.3918 21.4871L89.6076 21.4857C89.6434 21.4852 89.6791 21.4846 89.7148 21.4839L89.9278 21.4781C90.0338 21.4744 90.1391 21.4696 90.2436 21.4637L90.4515 21.4502L90.6573 21.4336L90.8608 21.4137C93.761 21.1057 95.9364 19.7854 96.2361 16.6358L96.2401 16.6044L96.2482 16.5219L96.2602 16.3574L96.2709 16.1582L96.2768 16.0143L96.2828 15.7935L96.2845 15.65L96.284 15.5152L96.2808 15.3937C96.28 15.3748 96.2791 15.3567 96.2781 15.3394V1.28501ZM50.7173 1.28501L48.2438 16.6111L45.7718 1.28501H37.7732L37.3489 20.8915H42.2492L42.3819 2.74119L45.7534 20.8915H50.7251L54.0997 2.74119L54.2329 20.8915H59.1455L58.7069 1.28501H50.7173ZM21.1027 1.28501L17.4708 20.8915H22.7671L25.5039 2.74119L28.1751 20.8915H33.4346L29.8178 1.28501H21.1027ZM113.608 17.0705L108.99 1.28501H101.715V20.6871H106.528L106.248 4.3965L111.207 20.6871H118.185V1.28501H113.34L113.608 17.0705ZM69.0872 6.38766C69.0001 6.00046 69.0252 5.58908 69.0703 5.37408C69.0831 5.31702 69.0981 5.25949 69.1159 5.20205L69.1447 5.11603C69.3403 4.57248 69.7979 4.06191 70.8472 4.06191C71.9796 4.06191 72.6435 4.76784 72.6435 5.82725V7.02612H77.4773V5.65957C77.4773 2.57568 75.4589 1.38938 73.3023 0.97359L73.1248 0.941127L72.9468 0.911996L72.7688 0.886056L72.5908 0.86317L72.4131 0.843197L72.2359 0.826C72.1769 0.820714 72.1181 0.815868 72.0595 0.811438L71.8841 0.799372L71.7099 0.789664L71.5372 0.782175L71.3662 0.776765L71.1972 0.773296L70.9477 0.771426L70.8377 0.771814L70.619 0.774934C70.5827 0.775717 70.5465 0.776632 70.5103 0.77768L70.2945 0.785576C70.2229 0.788746 70.1516 0.792458 70.0807 0.79672L69.869 0.811165C66.92 1.03674 64.6188 2.24804 64.1585 5.08859C64.0223 5.95363 63.9886 6.72149 64.2053 7.70134C64.5465 9.31149 65.8879 10.4573 67.4276 11.4183L67.6659 11.5647C67.7058 11.5889 67.7459 11.613 67.786 11.6369L68.0279 11.7794L68.2712 11.9195L68.5154 12.0576L68.8818 12.2611L69.8447 12.7888L70.0787 12.9185L70.3086 13.0478L70.5339 13.1769L70.7539 13.306C71.8033 13.9305 72.6441 14.5639 72.9466 15.3211C73.1141 15.7709 73.0775 16.338 72.9965 16.6998L72.9826 16.7581C72.9626 16.8451 72.9375 16.9321 72.9059 17.0177L72.872 17.1027C72.6493 17.623 72.1625 18.0665 71.0929 18.0665C69.8729 18.0665 69.1385 17.3651 69.1385 16.308L69.137 14.4263H63.9342V15.922C63.9342 19.4326 66.1614 20.9575 68.9509 21.4103L69.1585 21.4419C69.2976 21.4616 69.438 21.4788 69.5794 21.4936L69.7923 21.5139C70.0415 21.5355 70.2938 21.5498 70.5479 21.5573L70.7661 21.5621C70.8026 21.5626 70.8391 21.563 70.8756 21.5633L70.9852 21.5637C71.0581 21.5637 71.1308 21.5632 71.2032 21.5621L71.4196 21.5574C71.4555 21.5563 71.4913 21.5551 71.5271 21.5538L71.7408 21.5443C71.8117 21.5405 71.8822 21.5363 71.9525 21.5314L72.1621 21.5153C72.3012 21.5034 72.4389 21.4892 72.575 21.4728L72.778 21.4464L72.9786 21.4165C73.045 21.4059 73.1111 21.3948 73.1766 21.383L73.3721 21.3459C75.7334 20.8728 77.4903 19.5899 77.8431 17.1234C77.8917 16.7555 77.9215 16.4158 77.9376 16.1052L77.9464 15.9025C77.9475 15.8694 77.9485 15.8368 77.9493 15.8044L77.9526 15.6148V15.434L77.9495 15.2621L77.9439 15.0991L77.936 14.9451C77.9345 14.9202 77.933 14.8957 77.9313 14.8715L77.9206 14.7312L77.9084 14.6001L77.895 14.4782L77.8735 14.3128L77.8512 14.1686L77.8221 14.0097L77.8086 13.9447C77.4681 12.2373 75.9734 11.0314 74.3128 10.0387L74.0745 9.8983L73.8346 9.76062L73.5938 9.62547L73.2321 9.42708L72.7524 9.16967L71.9344 8.73455L71.5977 8.55243C71.5609 8.5323 71.5243 8.5122 71.488 8.49212L71.2726 8.372L71.0633 8.25234C70.0329 7.65495 69.2542 7.06839 69.0872 6.38766ZM5.32347 6.33957C5.23449 5.96902 5.2484 5.57921 5.29405 5.3527L5.31294 5.26789L5.33439 5.18397C5.49769 4.59523 5.94415 3.9884 7.09812 3.9884C8.24488 3.9884 8.92009 4.70113 8.92009 5.76909V6.98257H13.8105V5.60519C13.8105 2.66231 11.9797 1.42639 9.93398 0.942931L9.75559 0.902764C9.60654 0.870834 9.45661 0.842709 9.30641 0.818027L9.12609 0.790038L8.94574 0.765215L8.7656 0.743417L8.58592 0.724506C8.52613 0.718668 8.46645 0.713288 8.40693 0.708342L8.22886 0.694786L8.05194 0.683698L7.87642 0.674939L7.70254 0.668369L7.53052 0.663849L7.27651 0.6604H7.19303C7.11971 0.6604 7.04668 0.660913 6.97394 0.661946L6.75664 0.666615C6.61239 0.670781 6.46939 0.677062 6.32778 0.685526L6.11641 0.699867C6.08136 0.702533 6.0464 0.705337 6.01153 0.70828L5.80345 0.727625C5.73446 0.734637 5.66587 0.742215 5.59767 0.750367L5.3943 0.776557C5.22584 0.799833 5.06 0.826752 4.89699 0.857444L4.70277 0.896094L4.51138 0.938415L4.32291 0.984458C4.26058 1.00043 4.19876 1.01703 4.13746 1.03427L3.95512 1.08791C2.05719 1.67132 0.689447 2.89492 0.344182 5.01809C0.201687 5.89698 0.177266 6.67013 0.383205 7.66081C0.745769 9.37277 2.22449 10.565 3.87882 11.5668L4.12206 11.712C4.16277 11.736 4.20356 11.7599 4.24442 11.7837L4.49019 11.9254L4.86028 12.1339L5.35296 12.4057L6.07966 12.8039L6.43268 13.0004L6.77587 13.1962L6.99811 13.3268C7.03466 13.3485 7.07097 13.3703 7.10701 13.3921L7.31999 13.5231C8.22823 14.092 8.93957 14.6779 9.21415 15.3649C9.39398 15.8116 9.35193 16.3785 9.26695 16.7521L9.25241 16.8125C9.23143 16.8985 9.20566 16.9845 9.17379 17.0692L9.13985 17.1534C8.91139 17.6829 8.42109 18.137 7.33754 18.137C6.11273 18.137 5.38011 17.4235 5.38011 16.3518L5.37332 14.4651H0.112061V15.9643C0.112061 20.1726 3.28495 21.5558 6.7988 21.6597L7.01884 21.6645L7.2396 21.6661L7.4579 21.6646C7.56663 21.663 7.67472 21.6603 7.78212 21.6564L7.99596 21.647C8.10241 21.6414 8.20812 21.6347 8.31305 21.6267L8.52185 21.6091L8.72847 21.5881C8.79697 21.5805 8.86508 21.5724 8.93281 21.5637L9.13477 21.5359C9.20169 21.526 9.26819 21.5156 9.33427 21.5046L9.5312 21.4697C11.9764 21.0119 13.7988 19.7148 14.1657 17.1778C14.2163 16.8154 14.2479 16.4801 14.2655 16.1728L14.2753 15.9721L14.2813 15.7798C14.2826 15.7171 14.2835 15.6558 14.2837 15.5959L14.2831 15.4205L14.2796 15.2536L14.2737 15.0954L14.2656 14.9458L14.2557 14.8049L14.2444 14.6728L14.2252 14.4913L14.2046 14.3299L14.1768 14.1463L14.1451 13.9684C13.8058 12.2812 12.3556 11.0809 10.7241 10.0937L10.4841 9.95072C10.444 9.92713 10.4037 9.90367 10.3634 9.88031L10.1208 9.74153L9.87718 9.60532L9.63326 9.47149L9.38967 9.33983L8.31485 8.76931L7.97114 8.5851L7.74794 8.46339L7.53023 8.34235L7.31868 8.22177C7.28397 8.2017 7.24954 8.18165 7.21541 8.1616L7.01429 8.04136C6.12626 7.50043 5.47417 6.95923 5.32347 6.33957Z" fill="#1428A0"/>
</svg>
