<svg width="138" height="29" viewBox="0 0 138 29" fill="none" xmlns="http://www.w3.org/2000/svg">
<path d="M25.2652 15.1637L25.2834 15.1652L27.179 15.3633C27.3121 15.3777 27.4343 15.4426 27.5207 15.5442L27.5348 15.5614L27.5168 15.5704C27.6054 15.6822 27.6444 15.8253 27.6248 15.9666C27.2106 19.2594 25.65 22.3011 23.2167 24.5578C20.6919 26.8994 17.3756 28.2005 13.9321 28.2005C12.2596 28.2032 10.6013 27.8953 9.04162 27.2926L8.95664 27.2594C8.82898 27.2122 8.72642 27.1152 8.67211 26.9911L8.66395 26.9713C8.61077 26.8477 8.60782 26.7087 8.65508 26.5834L9.40334 24.7579C9.50473 24.4998 9.79207 24.3698 10.0516 24.4613L10.0688 24.4677C13.8934 25.9445 18.2252 25.1127 21.231 22.3245C23.1442 20.5665 24.3779 18.1915 24.716 15.6154C24.7519 15.3494 24.9827 15.1559 25.2471 15.1629L25.2652 15.1637ZM70.0357 7.41604C71.6521 7.41604 72.9162 7.9092 73.7235 8.85632L73.7505 8.88842V8.08693C73.7614 7.86322 73.9346 7.68242 74.1557 7.66058L74.1737 7.65916H76.3305C76.5524 7.6745 76.729 7.84916 76.7481 8.06901L76.7493 8.08693V20.0596C76.8191 21.7479 76.3002 23.4079 75.2814 24.7559C74.1197 26.1698 72.3547 26.8857 70.0357 26.8857C66.8119 26.8857 64.2678 24.846 63.849 21.9327C63.8283 21.7224 63.9564 21.5268 64.1555 21.4609L64.1733 21.4554L66.2805 20.9601C66.2915 20.9577 66.3025 20.9556 66.3137 20.9539C66.545 20.92 66.7599 21.0801 66.7938 21.3114C66.9863 22.9455 68.3908 24.1647 70.0357 24.1255C72.5276 24.1255 73.7 22.859 73.7232 20.2122L73.7235 20.1316V19.0825C72.7894 20.1301 71.4386 20.7091 70.0357 20.6629C66.4516 20.6629 63.8536 17.8803 63.8536 14.053C63.8208 12.331 64.4271 10.6578 65.5556 9.35666C66.7017 8.09744 68.3332 7.39079 70.0357 7.41604ZM5.12535 21.9777L5.15207 21.9775L5.1789 21.9777C6.03923 21.9876 6.73193 22.6832 6.74128 23.5404L6.74135 23.5672C6.74135 23.5761 6.74125 23.5851 6.74109 23.594C6.72611 24.4717 6.00255 25.1711 5.12484 25.1562C4.24713 25.1412 3.54774 24.4177 3.56257 23.54C3.57724 22.6802 4.27187 21.9914 5.12535 21.9777ZM107.37 7.24945L107.481 7.25027C111.334 7.30348 113.721 9.98542 113.721 14.2781C113.721 14.5052 113.709 14.7322 113.685 14.958C113.665 15.1657 113.495 15.3259 113.288 15.3357L113.271 15.3362H104.112C104.168 17.2598 105.759 18.7817 107.683 18.7538C109.174 18.8475 110.534 17.8991 110.961 16.4665C111.039 16.2608 111.261 16.1502 111.47 16.2092L111.487 16.2143L113.315 16.8582C113.417 16.8907 113.499 16.9623 113.546 17.0564L113.554 17.0743C113.604 17.1735 113.613 17.2887 113.577 17.394C112.728 19.908 110.335 21.5715 107.683 21.4915C105.944 21.5088 104.27 20.8294 103.036 19.6048C101.689 18.1872 100.97 16.2865 101.041 14.3322C101.041 9.94138 104.197 7.30259 107.279 7.25025L107.37 7.24945ZM55.5461 7.24946H55.5505C59.4725 7.24946 61.9084 9.94206 61.9084 14.2781C61.9081 14.5052 61.8961 14.7322 61.8724 14.958C61.8542 15.1668 61.6832 15.3281 61.4755 15.3359L61.4581 15.3362H52.2996C52.3561 17.2651 53.9544 18.7892 55.8838 18.7538C57.3762 18.8492 58.7363 17.9001 59.1618 16.4665C59.238 16.2591 59.4614 16.1477 59.6716 16.209L59.6886 16.2143L61.5166 16.8582C61.6235 16.8927 61.7104 16.9714 61.7553 17.0743C61.7981 17.1766 61.7981 17.2917 61.7553 17.394C60.9068 19.9064 58.5164 21.5695 55.8658 21.4915C54.1239 21.5112 52.4468 20.8316 51.2099 19.6048C49.8644 18.1861 49.1457 16.2862 49.2153 14.3322C49.2153 9.89703 52.4347 7.24946 55.5461 7.24946ZM41.6778 7.2449C43.4383 7.2449 44.8612 7.67268 45.9148 8.51463C46.6272 9.08242 47.1552 9.84861 47.4322 10.7165L47.433 10.72C47.4692 10.8696 47.3813 11.0203 47.2354 11.0637L47.2206 11.0677L45.0368 11.7881C44.9398 11.8265 44.832 11.8265 44.7351 11.7881C44.6524 11.7495 44.5902 11.6774 44.564 11.5901L44.5523 11.5471C44.3534 10.836 43.7032 9.69438 41.6778 9.69438C40.2369 9.69438 39.3724 10.5229 39.3724 11.3244L39.3727 11.3561C39.3836 11.8773 39.6669 12.5315 40.9096 12.7802L40.9483 12.7877L43.3528 13.238C46.0095 13.7729 47.5409 15.2169 47.5713 17.2293L47.5717 17.2904L47.5628 17.2545L47.5622 17.3155C47.5235 19.3328 45.5724 21.4554 41.9794 21.4554C37.7694 21.4554 36.1169 19.0735 35.8107 17.6687C35.7907 17.5217 35.8804 17.3829 36.0206 17.3397L36.0359 17.3354L38.2872 16.633C38.3275 16.6265 38.3686 16.6265 38.4088 16.633C38.4661 16.632 38.5226 16.6442 38.5743 16.6684L38.5934 16.6781C38.6761 16.7177 38.7371 16.7919 38.76 16.8806C39.0437 18.2315 40.2639 19.0375 42.02 19.0375C43.6544 19.0375 44.3974 18.182 44.3974 17.4075C44.3974 16.6416 43.7499 16.0738 42.6337 15.8393L42.5963 15.8316L40.0703 15.3408C37.7154 14.895 36.2475 13.4316 36.2475 11.527C36.2475 9.20807 38.7375 7.2449 41.6778 7.2449ZM132.488 3.49419H134.456C134.688 3.50812 134.87 3.69642 134.879 3.92706L134.879 3.94443V7.64117H137.247C137.478 7.65736 137.657 7.84482 137.666 8.07373L137.667 8.09141V10.0546L137.666 10.0717C137.66 10.2918 137.485 10.4706 137.265 10.4818L137.247 10.4824H134.879V17.0518C134.879 18.1414 135.311 18.5917 136.423 18.5917C136.648 18.5878 136.874 18.5707 137.097 18.5406L137.18 18.5286C137.303 18.5079 137.428 18.5425 137.522 18.6232C137.607 18.7021 137.658 18.8105 137.666 18.9258L137.667 18.9475V20.798C137.668 20.9866 137.545 21.1537 137.365 21.2078C136.846 21.353 136.311 21.4258 135.772 21.4245L135.699 21.4239C133.349 21.4239 131.883 19.9278 131.854 17.5081L131.854 17.4345V10.5094H129.805C129.581 10.4962 129.402 10.321 129.383 10.0997L129.381 10.0816V8.10941C129.381 7.87674 129.558 7.6831 129.787 7.66053L129.805 7.65916L130.355 7.65909L130.414 7.65805C131.057 7.63958 132.045 7.37899 132.065 5.94378L132.065 5.89856V3.94443C132.064 3.71176 132.242 3.51813 132.471 3.49556L132.488 3.49419ZM94.2447 7.24746L94.2962 7.24946H94.2916C96.6098 7.24946 98.9499 8.86458 98.9965 12.392L98.9972 12.4995V20.8386C98.9866 21.0623 98.8128 21.243 98.592 21.2649L98.574 21.2663H96.4169C96.1936 21.2531 96.0149 21.0779 95.995 20.8566L95.9937 20.8386V12.7697L95.9933 12.7076C95.9802 11.6795 95.6308 10.0276 93.5131 10.0276C91.948 10.0276 90.8333 11.2456 90.8112 13.0175L90.8109 13.0714V20.8386C90.8003 21.0623 90.6273 21.243 90.4057 21.2649L90.3876 21.2663H88.2044C87.9803 21.2531 87.8016 21.0779 87.7824 20.8566L87.7812 20.8386V12.7697L87.7808 12.7076C87.7676 11.6795 87.4182 10.0276 85.2998 10.0276C83.6728 10.0276 82.5711 11.2367 82.5492 13.0435L82.5489 13.0984V20.8386C82.5376 21.0623 82.3645 21.243 82.1437 21.2649L82.1257 21.2663H79.9686C79.7468 21.251 79.5704 21.0763 79.5513 20.8565L79.5501 20.8386V8.0599C79.5606 7.83777 79.7315 7.65759 79.9508 7.63372L79.9686 7.63213H82.0446C82.2679 7.64529 82.4473 7.82055 82.4666 8.04186L82.4678 8.0599V8.82988C83.4015 7.80613 84.7291 7.23092 86.1146 7.24946C87.7194 7.20243 89.2169 8.05087 90.0007 9.45119C90.9343 8.02481 92.5437 7.19034 94.2447 7.24746ZM126.54 8.83884C127.367 9.92742 127.793 11.2663 127.749 12.631L127.747 12.6886V20.8386C127.736 21.0607 127.565 21.2409 127.346 21.2648L127.328 21.2663H125.145C124.921 21.2531 124.742 21.0779 124.722 20.8566L124.721 20.8386V13.1254C124.721 11.1082 123.771 10.0816 121.97 10.0816C121.174 10.0559 120.414 10.4103 119.921 11.0362C119.444 11.7232 119.198 12.5431 119.217 13.378L119.219 13.4271V20.8386C119.208 21.0623 119.035 21.243 118.814 21.2649L118.796 21.2663H116.616C116.393 21.2531 116.214 21.0779 116.194 20.8566L116.193 20.8386V8.05087C116.204 7.82716 116.377 7.64642 116.598 7.62452L116.616 7.62309H118.746C118.968 7.63843 119.145 7.81317 119.164 8.03295L119.165 8.05087V8.95144C120.078 7.84459 121.449 7.21741 122.884 7.24946C124.282 7.18968 125.63 7.77578 126.54 8.83884ZM1.04088 15.71H16.5437C16.8286 15.7124 17.0587 15.9405 17.0659 16.2232L17.0661 16.2413V18.182C17.0684 18.4669 16.8442 18.7009 16.5618 18.7128L16.5436 18.7133H1.04088C0.755938 18.7109 0.525868 18.4827 0.518555 18.2001V18.182V16.2413V16.2232C0.525716 15.9467 0.746113 15.7224 1.02238 15.7105L1.04088 15.71ZM70.4095 10.1086C68.2842 10.1086 66.9334 11.6216 66.9334 14.053C66.9334 16.4845 68.2662 17.9928 70.4095 17.9928C72.4537 17.9928 73.8316 16.4079 73.8316 14.053C73.8316 11.6935 72.4537 10.1086 70.4095 10.1086ZM52.3955 12.7394L52.3897 12.7877H58.797C58.641 11.076 57.4347 10.0086 55.628 9.9874L55.5731 9.98708C53.9811 9.96119 52.6254 11.1256 52.4019 12.6918L52.3955 12.7394ZM104.226 12.7394L104.22 12.7877H110.628C110.472 11.076 109.265 10.0086 107.459 9.9874L107.404 9.98708C105.812 9.96119 104.456 11.1256 104.232 12.6918L104.226 12.7394ZM18.4843 0.900594C18.6186 0.949017 18.7274 1.04972 18.786 1.17978C18.8398 1.31107 18.8398 1.45827 18.786 1.58948L18.1106 3.39062C18.017 3.65768 17.725 3.79862 17.4577 3.70579C13.9194 2.47105 9.99322 3.1726 7.10152 5.55636C5.29937 7.0648 4.01976 9.10404 3.44533 11.3828C3.38587 11.613 3.17866 11.7739 2.94102 11.7746H2.82395L0.968821 11.3289C0.830503 11.2963 0.711725 11.2084 0.640133 11.0857H0.631097C0.55603 10.963 0.534869 10.8148 0.572635 10.676C1.30932 7.75886 2.95771 5.15299 5.27791 3.23748C8.9673 0.200125 13.9767 -0.686313 18.4843 0.900594ZM11.6177 8.68129H27.1205C27.3984 8.68356 27.6255 8.9009 27.642 9.17612L27.6428 9.19456V11.1353C27.6452 11.4202 27.4211 11.6542 27.1386 11.6661L27.1205 11.6666H11.6177C11.3347 11.6617 11.1072 11.4345 11.1 11.1536L11.0999 11.1353V9.21255C11.0974 8.92948 11.3188 8.69635 11.5994 8.68192L11.6177 8.68129ZM22.3797 2.76017L22.4064 2.75996L22.4332 2.7602C23.2936 2.77006 23.9863 3.46572 23.9956 4.32282L23.9957 4.34965C23.9957 4.35861 23.9956 4.36757 23.9954 4.37645C23.9805 5.25416 23.2569 5.95355 22.3792 5.93865C21.5015 5.92374 20.8021 5.2001 20.817 4.32247C20.8316 3.4626 21.5263 2.77391 22.3797 2.76017Z" fill="#4FB58B"/>
</svg>
